<svg width="360" height="190" viewBox="0 0 360 190" fill="none" xmlns="http://www.w3.org/2000/svg">
<path d="M279.43 175.009C274.22 176.049 268.89 176.689 263.8 177.269C250.71 178.759 237.45 177.669 224.31 178.599C208.64 179.709 194 183.699 179 186.659C160.95 190.229 143.3 191.389 125.43 186.919C107.66 182.479 89.4602 179.829 71.1702 179.059C65.4902 178.819 59.7502 178.749 54.2402 177.349C42.8002 174.449 34.1202 165.289 31.0502 153.829C29.6202 148.489 29.4102 142.709 26.7802 137.859C24.3902 133.439 20.2702 130.289 16.9502 126.529C6.3402 114.499 4.8202 95.2095 13.4102 81.6195C20.7302 70.0395 33.7002 63.4295 42.5902 53.0395C46.3502 48.6395 49.3502 43.5995 53.2402 39.3195C65.2302 26.1295 82.7502 22.7495 99.4602 20.1795C107.31 18.9695 114.68 16.4895 122.69 15.3995C132.56 14.0595 142.51 13.2395 152.47 13.1395C167.24 12.9895 181.52 12.6195 196.06 9.38947C212.88 5.64947 235.4 7.28947 251.12 12.3195C264.98 16.7595 278.13 25.3495 286.92 35.6795C290.91 40.3695 294.85 45.2995 299.54 49.4795C305.96 55.2795 313.72 59.8895 319.88 65.8995C333.48 79.1595 337.92 98.0995 336.33 115.869C334.35 138.059 318.95 155.989 298.57 168.219C292.92 171.629 286.27 173.649 279.43 175.009Z" fill="#FFC652"/>
<path d="M12.2197 122.6C1.60973 110.57 0.0897269 91.2798 8.67973 77.6898C15.9997 66.1098 28.9697 59.4998 37.8597 49.1098C41.6197 44.7098 44.6197 39.6698 48.5097 35.3898C60.4997 22.1998 78.0197 18.8198 94.7297 16.2498C102.58 15.0398 109.95 12.5598 117.96 11.4698C127.83 10.1298 137.78 9.30978 147.74 9.20978C162.51 9.05978 176.79 8.68978 191.33 5.45978C208.15 1.71978 230.67 3.35978 246.39 8.38978C260.25 12.8298 273.4 21.4198 282.19 31.7498" stroke="#49B3F7" stroke-width="1.9765" stroke-miterlimit="10" stroke-linecap="round" stroke-linejoin="round" stroke-dasharray="9.88 9.88"/>
<path d="M326.399 108.21H180.559V127.03H326.399V108.21Z" fill="#49B3F7"/>
<path d="M359.849 131.93H180.559V150.75H359.849V131.93Z" fill="#67D449"/>
<path d="M281.219 84.499H180.559V103.319H281.219V84.499Z" fill="#864FF1"/>
<path d="M234.679 60.7793H180.559V79.5993H234.679V60.7793Z" fill="#FF6551"/>
<path d="M306.639 37.0693H180.559V55.8893H306.639V37.0693Z" fill="#49B3F7"/>
<path d="M173.449 24.4795V158.529H335.249" stroke="#FF6551" stroke-width="1.9765" stroke-miterlimit="10" stroke-linecap="round" stroke-linejoin="round" stroke-dasharray="9.88 9.88"/>
<path d="M106.38 145.69C137.44 145.69 162.62 120.51 162.62 89.45C162.62 58.3895 137.44 33.21 106.38 33.21C75.3192 33.21 50.1396 58.3895 50.1396 89.45C50.1396 120.51 75.3192 145.69 106.38 145.69Z" fill="#864FF1"/>
<mask id="mask0_133_2852" style="mask-type:alpha" maskUnits="userSpaceOnUse" x="50" y="33" width="113" height="113">
<path d="M106.38 145.69C137.44 145.69 162.62 120.51 162.62 89.45C162.62 58.3895 137.44 33.21 106.38 33.21C75.3192 33.21 50.1396 58.3895 50.1396 89.45C50.1396 120.51 75.3192 145.69 106.38 145.69Z" fill="#864FF1"/>
</mask>
<g mask="url(#mask0_133_2852)">
<path d="M108.87 137.17C101.23 137.7 93.3802 138.36 85.8602 136.69C72.8802 133.8 70.4102 124.9 70.4102 124.9C72.8902 121.94 73.9902 118.01 74.1702 114.15C74.4202 108.95 73.5102 103.67 73.3902 98.4801C73.2202 91.2601 72.9502 83.76 73.2102 76.43C73.4502 69.6101 73.3002 60.5601 76.8502 54.5201C78.9802 50.8901 82.3502 48.1601 85.9202 46.0201C90.8602 43.0701 97.2702 42.7401 102.49 45.1601C102.83 45.3201 107.88 42.9201 108.84 42.7801C111.26 42.4301 113.61 42.7001 115.95 43.3501C119.48 44.3301 122.75 45.5801 125.65 47.8901C133.57 54.1701 135.24 64.6501 135.38 74.1701C135.55 86.0301 135.58 97.7701 136.79 109.59C137.28 114.41 138.14 122.1 141.86 125.21C135.8 133.84 122.2 135.71 115.22 136.57C113.11 136.82 110.99 137.03 108.87 137.17Z" fill="#593228"/>
<path d="M88.9812 114.491C88.7512 117.261 88.1712 120.011 87.2912 122.451C87.1712 122.801 86.9612 123.201 86.5912 123.211C86.3012 123.221 86.0612 122.961 86.0012 122.671C85.9412 122.391 86.0012 122.101 86.0712 121.821C86.3812 120.541 86.7212 119.271 86.9812 117.981C87.8312 113.681 87.4012 109.651 86.8512 105.371C86.8312 105.231 86.8212 105.071 86.9112 104.961C87.0612 104.771 87.3612 104.861 87.5612 104.991C88.3312 105.531 88.5912 106.551 88.7412 107.481C89.1112 109.691 89.1812 112.091 88.9812 114.491Z" fill="#6B3D2D"/>
<path d="M93.0407 110.1C93.4707 111.72 93.8407 114.13 92.8407 115.27C92.0207 116.2 91.8507 114.21 91.8707 113.76C91.9207 112.06 91.9607 110.37 92.0107 108.67C92.0207 108.36 92.0507 108.02 92.2907 107.83C92.5007 108.6 92.8407 109.32 93.0407 110.1Z" fill="#6B3D2D"/>
<path d="M74.5705 126.631C74.7405 126.641 74.9206 126.491 75.0406 126.351C77.6206 123.341 78.5405 119.301 78.7405 115.431C78.8105 114.061 78.8705 102.611 77.8205 102.501C77.3505 102.451 77.2005 103.121 77.2405 103.591C77.5205 107.261 77.7406 110.951 77.4706 114.631C77.3306 116.501 77.0706 118.361 76.6206 120.171C76.1206 122.181 74.3405 124.131 74.3105 126.211C74.3105 126.341 74.3205 126.491 74.4205 126.571C74.4705 126.611 74.5205 126.631 74.5705 126.631Z" fill="#6B3D2D"/>
<path d="M83.5312 107.73C83.3612 106.65 83.1512 105.58 82.9012 104.52C82.7612 103.91 81.0912 97.5799 81.0612 97.5899C79.1212 98.2299 81.6312 105.45 81.9412 106.91C82.4612 109.41 82.4212 112.1 82.3912 114.65C82.3112 119.72 81.5812 124.78 80.2012 129.67C80.8612 129.87 81.3512 129.07 81.5812 128.42C82.4112 126.01 83.5312 123.43 83.8812 120.92C84.2612 118.22 84.2412 115.4 84.0812 112.68C83.9812 111.02 83.8012 109.37 83.5312 107.73Z" fill="#6B3D2D"/>
<path d="M122.53 116.02C123.03 118.75 123.88 121.44 124.99 123.78C125.15 124.11 125.39 124.49 125.76 124.47C126.05 124.45 126.26 124.17 126.3 123.88C126.34 123.59 126.24 123.31 126.14 123.04C125.7 121.8 125.24 120.57 124.86 119.31C123.59 115.11 123.63 111.06 123.76 106.74C123.76 106.6 123.76 106.44 123.66 106.34C123.49 106.17 123.2 106.28 123.02 106.44C122.31 107.06 122.15 108.09 122.09 109.03C121.92 111.25 122.09 113.65 122.53 116.02Z" fill="#6B3D2D"/>
<path d="M118.051 109.98C117.781 111.63 117.651 114.06 118.751 115.1C119.661 115.95 119.631 113.95 119.571 113.51C119.361 111.83 119.151 110.14 118.931 108.46C118.891 108.16 118.831 107.81 118.571 107.65C118.441 108.44 118.181 109.19 118.051 109.98Z" fill="#6B3D2D"/>
<path d="M138.05 123.6C137.89 123.62 137.68 123.5 137.55 123.37C134.68 120.62 133.37 116.7 132.79 112.86C132.58 111.5 131.41 100.12 132.44 99.9099C132.9 99.8199 133.11 100.46 133.12 100.93C133.18 103.58 133.17 107.3 133.98 111.94C134.3 113.78 134.74 115.61 135.37 117.37C136.06 119.32 138.02 121.09 138.26 123.15C138.28 123.28 138.28 123.43 138.19 123.52C138.16 123.57 138.11 123.59 138.05 123.6Z" fill="#6B3D2D"/>
<path d="M127.28 105.66C127.35 104.57 127.45 103.48 127.59 102.4C127.67 101.78 128.71 95.3203 128.74 95.3203C130.73 95.7703 128.94 103.19 128.78 104.69C128.51 107.23 128.81 109.9 129.09 112.43C129.66 117.47 130.89 122.44 132.74 127.16C132.1 127.43 131.54 126.68 131.25 126.05C130.18 123.73 128.82 121.28 128.22 118.81C127.58 116.16 127.32 113.35 127.21 110.63C127.16 108.98 127.18 107.32 127.28 105.66Z" fill="#6B3D2D"/>
<path d="M79.7406 180.92C79.0006 178.81 76.7906 173.33 77.7006 170.48C78.6106 167.63 80.0606 166.05 80.4806 163.42C80.9006 160.79 83.8506 140.2 83.8506 140.2L89.3106 141.28C89.3106 141.28 87.0106 154.36 86.1706 157.84C85.3306 161.32 84.5906 162.69 84.9106 165.01C85.2306 167.33 87.2306 174.18 86.1706 174.81C85.1106 175.44 84.5606 173.97 84.0406 173.65C83.5106 173.33 83.4306 175.65 83.9606 178.29C84.4906 180.93 83.3406 181.56 82.7006 180.93C82.0606 180.3 81.2006 176.08 81.2006 176.08C81.2006 176.08 82.3806 180.75 81.7506 181.16C81.1106 181.55 79.7406 180.92 79.7406 180.92Z" fill="#FFBF94"/>
<path d="M95.7907 116.06C95.7907 116.06 90.7307 115.71 88.6207 118.28C86.5107 120.84 82.2707 136.69 80.9707 139.26C80.9707 139.26 82.9307 143.93 90.5207 142.46C90.5207 142.46 94.9807 125.28 95.7907 121.09C96.6007 116.89 95.7907 116.06 95.7907 116.06Z" fill="#FF6551"/>
<path d="M82.2307 135.82C81.7007 137.43 81.2607 138.68 80.9707 139.25C80.9707 139.25 82.9307 143.92 90.5207 142.45C90.5207 142.45 90.9907 140.62 91.6607 138.02C88.2807 138.49 84.8807 138.02 82.2307 135.82Z" fill="#E1594B"/>
<path d="M130.821 180.919C131.561 178.809 133.771 173.329 132.861 170.479C131.951 167.629 130.501 166.049 130.081 163.419C129.661 160.779 126.711 140.199 126.711 140.199L121.251 141.279C121.251 141.279 123.551 154.359 124.391 157.839C125.231 161.319 125.971 162.689 125.651 165.009C125.331 167.329 123.331 174.179 124.391 174.809C125.441 175.439 126.181 172.599 126.711 172.279C127.241 171.959 127.131 175.649 126.601 178.289C126.071 180.929 127.221 181.559 127.861 180.929C128.501 180.299 129.361 176.079 129.361 176.079C129.361 176.079 128.181 180.749 128.811 181.159C129.451 181.549 130.821 180.919 130.821 180.919Z" fill="#FFBF94"/>
<path d="M114.871 116.06C114.871 116.06 119.671 115.61 121.541 117.29C123.421 118.98 125.551 125.43 126.781 130.2C127.881 134.46 130.051 141.06 130.051 141.06C130.051 141.06 124.681 143.6 120.361 143.07L115.721 119.81L114.871 116.06Z" fill="#FF6551"/>
<path d="M119.531 138.95L120.351 143.08C124.681 143.61 130.041 141.07 130.041 141.07C130.041 141.07 129.531 139.53 128.891 137.47C126.141 138.99 122.781 139.01 119.531 138.95Z" fill="#E1594B"/>
<path d="M102.271 113.83C102.271 113.83 94.6007 115.38 93.8507 116.05C93.1007 116.72 89.2707 137.38 88.8107 140.86C88.3607 144.34 87.7207 159.2 87.7207 161.1C87.7207 163 92.1507 167.95 103.431 168.27C114.711 168.59 121.031 165 122.191 164.48C123.351 163.95 124.211 162.79 124.251 158.89C124.301 154.99 121.341 132.43 120.181 127.58C119.021 122.73 117.971 116.65 116.491 116.05C115.031 115.46 109.231 113.9 102.271 113.83Z" fill="#E1594B"/>
<path d="M100.381 116.061C100.381 116.061 96.6813 115.281 95.1013 117.531C93.5213 119.781 91.7313 128.091 92.2013 133.931C92.6713 139.761 96.2613 147.561 96.2613 147.561C95.5213 149.421 92.3913 144.401 91.6513 145.031C90.9113 145.661 90.3513 155.051 92.2013 159.291C94.0413 163.531 99.7013 165.951 107.101 165.431C114.501 164.911 116.741 160.581 118.681 157.311C120.611 154.041 121.181 146.401 120.451 146.611C119.721 146.821 120.841 145.871 115.761 147.881C115.761 147.881 113.281 148.831 115.291 146.511C117.301 144.191 118.511 145.191 119.241 137.501C119.981 129.811 117.241 118.661 116.081 117.541C114.921 116.421 111.651 116.521 110.601 116.841C109.551 117.161 101.321 116.771 99.5313 115.811" fill="#FF6551"/>
<path d="M102.271 113.83C102.271 113.83 100.491 114.19 98.5605 114.64C99.2305 116.37 100.941 119.08 105.261 119.45C109.881 119.84 112.051 117.1 112.931 115.05C110.271 114.46 106.491 113.87 102.271 113.83Z" fill="#E1594B"/>
<path d="M110.64 115.12C110.64 115.12 109.32 117.91 105.25 117.49C101.18 117.07 100.33 114.96 100.33 114.96L100.39 112.75L100.48 107.29L110.2 107.69L111.11 107.51L111.06 108.32L110.8 112.53L110.64 115.12Z" fill="#EA9573"/>
<path opacity="0.31" d="M110.8 111.38C109.47 112.72 107.77 114.07 106.29 114.11C103.37 114.19 100.46 111.66 100.39 111.59L100.48 106.13L110.2 106.53L111.06 107.17L110.8 111.38Z" fill="#DD7258"/>
<path d="M127.03 83.8598C127.03 83.8598 130.48 82.0298 132.46 84.6698C134.44 87.3098 131.46 94.1398 129.11 94.8398C126.77 95.5398 125.84 94.8898 125.84 94.8898L127.03 83.8598Z" fill="#FFBF94"/>
<path d="M83.4601 84.5204C83.4601 84.5204 79.9601 82.7904 78.0501 85.4904C76.1401 88.1904 79.3001 94.9304 81.6601 95.5604C84.0201 96.1904 84.9301 95.5104 84.9301 95.5104L83.4601 84.5204Z" fill="#FFBF94"/>
<path d="M128.54 73.7003C128.54 73.7003 128.03 83.6603 127.13 91.6803V91.7103C126.99 92.9103 126.85 94.0703 126.7 95.1503V95.1703C126.24 98.3903 122.71 101.87 122.12 102.49C120 104.69 110.82 112.06 106.01 111.79C101.2 111.52 90.4302 105.1 88.3602 102.74C87.7002 101.98 84.9502 98.2703 84.2502 94.9703C82.7602 87.9603 81.4502 78.1603 81.4502 78.1603C81.7602 61.9903 89.9702 56.4003 106.02 55.5803C122.06 54.7803 128.54 73.7003 128.54 73.7003Z" fill="#FFBF94"/>
<g opacity="0.28">
<path opacity="0.28" d="M80.5099 74.2799C80.1499 72.5399 81.3799 70.8899 82.6199 69.5499C86.8399 65.0199 92.0699 61.3399 97.8699 58.7999C102.53 56.7599 107.85 55.4699 112.81 56.7299C115.19 57.3299 117.36 58.4999 119.5 59.6499C120.49 60.1799 121.48 60.7199 122.31 61.4499C123.06 62.1099 123.66 62.9199 124.22 63.7299C126.58 67.1499 128.46 70.8599 129.8 74.7399C130.09 75.5899 130.37 76.4899 130.21 77.3699C130.07 78.1799 129.58 78.8999 129.04 79.5299C127.89 80.8699 126.41 81.9699 124.75 82.7099C124.06 80.1499 123.37 77.5999 122.69 75.0399C121.72 76.4799 119.95 77.3999 118.14 77.4099C117.58 75.0999 116.36 72.9299 114.64 71.1999C113.47 73.2599 111.25 74.6399 108.92 75.4499C108.73 73.0399 108.09 70.6699 107.04 68.4699C106.35 70.6199 105.67 72.7799 104.98 74.9299C102.95 74.6399 101.11 73.3899 100.17 71.6699C98.8099 73.2799 98.1599 75.4099 98.4099 77.4499C95.5099 77.8999 92.3999 76.4499 91.0299 74.0099C90.5299 76.3699 90.0299 78.7399 89.5299 81.0999C87.4599 80.7499 85.5699 79.5899 84.3899 77.9599C83.7199 79.7499 83.5799 81.7199 83.9999 83.5799C83.9999 83.5799 82.4899 83.2299 82.1599 82.1399C81.7999 81.0499 80.5099 74.2799 80.5099 74.2799Z" fill="#DA8966"/>
</g>
<path d="M131.65 72.1101C130.16 63.9101 119.06 53.6501 103.72 53.1001C88.3902 52.5501 76.6302 64.6701 77.5102 74.4201C77.9602 79.4101 79.1702 81.9701 80.6602 83.3101C82.0902 84.5901 83.8202 84.7501 83.8202 84.7501C82.0502 79.5101 85.0502 73.2201 85.0502 73.2201C85.2102 77.0601 89.4002 79.9601 89.4002 79.9601C87.7002 71.9801 92.1202 68.1901 92.1202 68.1901C91.5702 74.7801 96.7002 76.5701 96.7002 76.5701C95.8902 71.5401 99.9902 67.8601 99.9902 67.8601C100.26 72.0201 104.11 73.5001 104.11 73.5001C103.34 67.5801 105.8 63.7901 107.96 61.6601C108.91 64.0701 110.44 68.7601 110.29 73.6301C110.29 73.6301 114.71 69.9501 115.11 67.7501C115.11 67.7501 119.31 71.2001 119.7 76.7801C119.7 76.7801 122.86 74.3201 122.5 71.4801C122.5 71.4801 126.27 74.8301 125.94 82.2901C125.94 82.2901 126.43 81.6001 127.36 80.2801C127.67 82.9701 127.56 84.9701 127.22 85.3901C127.22 85.3701 133.15 80.3101 131.65 72.1101Z" fill="#593228"/>
<path d="M114.23 79.7105C114.42 80.0005 114.74 79.9705 115.05 80.0005C115.41 80.0305 115.77 80.0305 116.13 80.0305C116.83 80.0405 117.54 80.1205 118.19 80.3905C118.79 80.6405 119.34 81.0305 119.87 81.4105C120.13 81.6005 120.38 81.8105 120.66 81.9605C120.8 82.0405 121 82.1505 121.15 82.1905C121.31 82.2405 121.48 82.2005 121.64 82.2605C121.83 82.3305 121.95 82.0905 121.88 81.9305C121.8 81.7605 121.82 81.5605 121.73 81.3905C121.64 81.2105 121.5 81.0205 121.37 80.8705C121.11 80.5605 120.82 80.3105 120.5 80.0605C119.86 79.5605 119.13 79.1705 118.37 78.9405C117.56 78.6905 116.72 78.6805 115.88 78.7905C115.62 78.8305 113.85 79.1205 114.23 79.7105Z" fill="#5F130F"/>
<path d="M93.65 80.5102C93.15 79.9702 92.17 80.1902 91.53 80.2902C90.8 80.4102 90.12 80.6502 89.45 80.9802C88.81 81.2902 88.22 81.6902 87.67 82.1602C87.2 82.5602 86.42 83.2802 86.62 83.9902C86.68 84.2002 86.86 84.3102 87.06 84.3302C87.64 84.3902 88.21 83.6402 88.63 83.3102C89.1 82.9302 89.62 82.6002 90.17 82.3502C90.7 82.1102 91.26 81.9402 91.82 81.8002C92.41 81.6602 93.2 81.7502 93.66 81.3002C93.87 81.0702 93.84 80.7102 93.65 80.5102Z" fill="#5F130F"/>
<path opacity="0.44" d="M83.3597 92.97C82.1097 92.36 80.8897 91 80.4197 89.59C80.2097 88.94 80.2397 87.88 81.0497 87.76C81.7097 87.65 81.9997 88.59 82.2997 89.06C82.4597 89.31 82.8796 89.15 82.7696 88.84C82.4896 87.99 82.2097 86.91 81.2297 86.8C80.2197 86.68 79.4696 87.66 79.3796 88.67C79.2696 89.91 79.9696 91.05 80.6296 91.99C81.3096 92.96 82.1396 93.75 83.3096 93.47C83.5096 93.42 83.5497 93.06 83.3597 92.97Z" fill="#DA8966"/>
<path opacity="0.44" d="M131.55 87.7798C131.48 86.8498 130.76 86.0198 129.86 86.4298C129.25 86.6998 128.29 88.0098 128.96 88.6598C129.04 88.7398 129.14 88.7098 129.2 88.6198C129.53 88.1298 129.56 87.3398 130.2 87.1498C131.08 86.8898 130.81 88.5198 130.72 88.9898C130.61 89.5698 130.42 90.1298 130.09 90.6098C129.74 91.1198 129.24 91.3298 128.73 91.6098C128.62 91.6698 128.62 91.8398 128.7 91.9298C129.42 92.7598 130.43 91.6098 130.81 90.9298C131.32 90.0498 131.63 88.7998 131.55 87.7798Z" fill="#DA8966"/>
<path d="M111.05 100.07C110.82 100.99 110.37 102.25 109.52 103.33C108.62 104.46 107.28 105.37 105.27 105.44C102.99 105.53 101.52 104.42 100.57 103.1C99.8398 102.08 99.4298 100.94 99.1998 100.12C99.1598 99.9597 99.1698 99.8097 99.2298 99.6797C99.3498 99.3997 99.6698 99.2097 99.9998 99.3197L100.21 99.3897C103.46 100.41 106.93 100.35 110.14 99.2197C110.21 99.1897 110.29 99.1797 110.36 99.1797C110.66 99.1797 110.93 99.3797 111.02 99.6597C111.08 99.7897 111.09 99.9297 111.05 100.07Z" fill="#831532"/>
<path d="M111.04 99.6596C110.25 100.27 108.03 101.76 105.17 101.8C102.43 101.84 100.18 100.39 99.25 99.6996C99.37 99.4196 99.69 99.2296 100.02 99.3396L100.23 99.4096C103.48 100.43 106.95 100.37 110.16 99.2396C110.23 99.2096 110.31 99.1996 110.38 99.1996C110.68 99.1796 110.94 99.3796 111.04 99.6596Z" fill="white"/>
<path d="M109.52 103.329C108.62 104.459 107.28 105.369 105.27 105.439C102.99 105.529 101.52 104.419 100.57 103.099C101.97 102.729 105.56 102.019 109.52 103.329Z" fill="#FF6551"/>
<path d="M95.2099 98.207C95.4746 97.0892 94.0423 95.7931 92.0108 95.3121C89.9793 94.8311 88.1179 95.3474 87.8533 96.4652C87.5886 97.5831 89.0209 98.8792 91.0523 99.3602C93.0838 99.8412 94.9452 99.3249 95.2099 98.207Z" fill="#F2786B"/>
<path d="M119.534 98.9881C121.594 98.6478 123.112 97.4532 122.925 96.3199C122.737 95.1865 120.916 94.5436 118.856 94.8839C116.797 95.2241 115.279 96.4188 115.466 97.5521C115.653 98.6855 117.475 99.3284 119.534 98.9881Z" fill="#F2786B"/>
<path opacity="0.21" d="M127.39 88.3705L127.13 91.7205L126.7 95.1605V95.1805C126.24 98.4005 122.71 101.88 122.12 102.5C120 104.7 110.82 112.07 106.01 111.8C101.2 111.53 90.4304 105.11 88.3604 102.75C87.7004 101.99 84.9504 98.2805 84.2504 94.9805C83.4804 91.6005 82.9004 87.7305 82.9004 87.7305C82.9004 87.7305 84.9504 95.5205 88.9404 101.61C90.4804 103.97 101.84 109.76 106.56 109.93C111.28 110.1 119.02 104.02 121.97 100.9C125.54 97.1005 127.34 88.6105 127.39 88.3705Z" fill="#DA8966"/>
<g opacity="0.21">
<path opacity="0.21" d="M104.761 94.4502C104.081 94.4802 103.401 94.6702 102.811 95.0102C102.771 95.0402 102.721 95.0602 102.691 95.1002C102.581 95.2602 102.771 95.4702 102.941 95.5602C104.041 96.1402 105.361 96.0202 106.551 95.7202C106.841 95.6502 107.141 95.5502 107.341 95.3402C107.471 95.2002 107.551 94.9602 107.411 94.8402C107.351 94.7902 107.271 94.7702 107.201 94.7502C106.081 94.5302 104.921 94.5502 103.801 94.8002L104.761 94.4502Z" fill="#DA8966"/>
</g>
<path d="M102.75 95.2803C103.05 95.1603 103.3 94.9403 103.62 94.8303C103.99 94.7103 104.38 94.6803 104.76 94.6803C105.12 94.6703 105.49 94.6703 105.85 94.7303C106.26 94.8003 106.52 94.9503 106.84 95.2203C107.15 95.4803 107.65 95.1403 107.42 94.7503C106.91 93.8903 105.67 93.9003 104.81 93.9303C104.08 93.9503 102.65 94.0603 102.46 95.0103C102.43 95.1603 102.58 95.3503 102.75 95.2803Z" fill="#D88261"/>
<g opacity="0.11">
<path opacity="0.11" d="M110.48 81.3102C110.57 78.1202 106.85 77.5302 104.5 77.8602C103.11 78.0602 100.85 78.0102 99.67 78.7702C98.54 79.5002 97.98 81.0402 98.43 82.3402C98.64 82.9602 99.04 83.4902 99.42 84.0202C100.52 85.5602 101.5 87.2002 102.34 88.9002C102.71 89.6602 103.14 90.5102 103.93 90.7802C104.47 90.9602 105.07 90.8202 105.58 90.5402C106.59 89.9802 107.27 88.9402 107.75 87.8702C108.23 86.8002 108.56 85.6502 109.1 84.6102C109.65 83.5402 110.44 82.5202 110.48 81.3102Z" fill="#F8A37A"/>
</g>
<path d="M94.1805 92.7303C96.6381 92.7303 98.6305 90.6798 98.6305 88.1503C98.6305 85.6208 96.6381 83.5703 94.1805 83.5703C91.7228 83.5703 89.7305 85.6208 89.7305 88.1503C89.7305 90.6798 91.7228 92.7303 94.1805 92.7303Z" fill="white"/>
<path d="M97.931 88.9906C97.401 90.8806 95.491 91.9706 93.651 91.4306C91.811 90.8906 90.751 88.9106 91.281 87.0206C91.811 85.1306 93.721 84.0406 95.561 84.5806C97.401 85.1206 98.461 87.1006 97.931 88.9906Z" fill="black"/>
<path d="M96.4307 89.7207C96.2807 90.2707 95.7207 90.5906 95.1907 90.4306C94.6607 90.2706 94.3507 89.7006 94.5007 89.1506C94.6507 88.6006 95.2107 88.2807 95.7407 88.4407C96.2807 88.5907 96.5807 89.1707 96.4307 89.7207Z" fill="white"/>
<path d="M112.42 88.3302C112.74 90.8402 114.98 92.6002 117.41 92.2702C119.84 91.9402 121.56 89.6302 121.23 87.1302C120.91 84.6202 118.67 82.8602 116.24 83.1902C113.81 83.5202 112.1 85.8202 112.42 88.3302Z" fill="white"/>
<path d="M113.11 87.9906C113.36 89.9406 115.1 91.3106 116.99 91.0506C118.88 90.7906 120.21 89.0006 119.96 87.0506C119.71 85.1006 117.97 83.7306 116.08 83.9906C114.19 84.2506 112.86 86.0406 113.11 87.9906Z" fill="black"/>
<path d="M114.12 88.4104C114.19 88.9804 114.7 89.3804 115.25 89.3004C115.8 89.2204 116.19 88.7004 116.11 88.1404C116.04 87.5704 115.53 87.1704 114.98 87.2504C114.43 87.3204 114.05 87.8404 114.12 88.4104Z" fill="white"/>
<path d="M102.781 50.8796C101.071 51.4496 99.6408 53.0196 98.4408 54.3296C97.1908 55.7096 96.0508 57.1896 95.0808 58.7896C93.2208 61.8796 92.0808 65.5196 92.6208 69.1796C92.8808 70.9896 93.4908 73.1796 95.1308 74.1596C95.2508 74.2296 95.3908 74.1096 95.3608 73.9696C95.0108 72.4196 94.2908 70.9996 94.0708 69.3996C93.8608 67.8196 93.9308 66.1896 94.2908 64.6396C95.0708 61.2796 96.9308 58.3496 99.0608 55.7396C99.6808 54.9796 100.331 54.2596 101.011 53.5696C101.701 52.8596 102.501 52.2596 103.161 51.5296C103.411 51.2496 103.151 50.7496 102.781 50.8796Z" fill="#6B3D2D"/>
<path d="M103.381 55.4904C103.661 55.0904 103.091 54.5304 102.711 54.8204C100.391 56.5804 99.5509 59.8704 99.5809 62.7204C99.6009 64.3704 99.9109 66.0404 100.441 67.6004C100.931 69.0504 101.541 70.8704 102.751 71.8604C102.801 71.9004 102.921 71.8804 102.911 71.7904C102.751 70.3104 101.931 68.9104 101.511 67.4904C101.071 66.0204 100.781 64.5004 100.781 62.9604C100.781 61.6104 101.001 60.2704 101.451 59.0004C101.901 57.7204 102.621 56.5904 103.381 55.4904Z" fill="#6B3D2D"/>
<path d="M99.8007 50.6301C97.9307 51.0101 96.2207 52.1501 94.6907 53.2701C93.1307 54.4101 91.6607 55.6901 90.3307 57.1001C87.5707 60.0201 85.0907 63.4201 84.7207 67.6001C84.5207 69.8701 85.1007 72.0801 86.2007 74.0401C86.3707 74.3301 86.8507 74.1301 86.7407 73.8001C85.5607 70.2401 85.8607 66.1301 87.7107 62.8801C89.5407 59.6801 92.2207 56.8701 95.0507 54.6001C96.6407 53.3201 98.4507 52.3001 99.9707 50.9201C100.101 50.7901 99.9407 50.6001 99.8007 50.6301Z" fill="#6B3D2D"/>
<path d="M100.12 49.0699C97.7203 48.8199 95.1703 49.8899 93.0603 50.9699C90.8903 52.0899 88.9003 53.5599 87.1703 55.3099C83.1903 59.3199 81.0903 64.7299 79.8203 70.2299C79.4303 71.9099 79.1503 73.6399 79.1303 75.3599C79.1203 76.2399 79.1603 77.1299 79.3303 77.9899C79.4103 78.4099 79.5203 78.8099 79.6503 79.2099C79.7903 79.6399 80.0403 79.9599 80.2303 80.3599C80.4103 80.7299 80.8703 80.4399 80.8203 80.0899C80.7503 79.6799 80.7903 79.2599 80.7503 78.8399C80.7103 78.5199 80.6903 78.1899 80.6703 77.8699C80.6203 77.1499 80.5703 76.4399 80.5703 75.7199C80.5803 74.2599 80.7503 72.7999 81.0403 71.3699C81.6203 68.4599 82.5203 65.5099 83.7003 62.7999C85.6103 58.4299 88.9103 54.8199 92.9603 52.4899C94.0803 51.8399 95.2603 51.2899 96.4703 50.8399C97.7103 50.3899 98.9903 50.0799 100.21 49.5599C100.46 49.4699 100.41 49.0999 100.12 49.0699Z" fill="#6B3D2D"/>
<path d="M96.5902 48.2201C96.0202 48.2101 95.4502 48.1801 94.8802 48.2501C94.3002 48.3301 93.7302 48.4201 93.1602 48.5201C91.9902 48.7401 90.8402 49.0201 89.7002 49.3601C87.4802 50.0101 85.3702 50.9601 83.4902 52.3501C80.0602 54.8701 77.7702 58.6701 76.4402 62.7401C75.7702 64.7801 75.3702 66.8901 75.1702 69.0301C74.7602 73.3401 74.5902 77.6701 74.8002 81.9901C75.0002 86.1001 75.0902 90.6201 76.0902 94.6201C76.2102 95.1001 76.6902 95.7001 77.0702 95.3801C76.1702 85.5001 75.0602 74.4701 77.4902 64.7601C78.4402 60.8401 80.2702 57.2001 83.1202 54.4001C84.8702 52.6801 87.0202 51.4301 89.2702 50.5301C90.4602 50.0501 91.6802 49.7001 92.9202 49.4001C93.5102 49.2601 94.1102 49.1301 94.7002 49.0101C95.3502 48.8801 95.9702 48.6801 96.6202 48.5001C96.7802 48.4501 96.7402 48.2201 96.5902 48.2201Z" fill="#6B3D2D"/>
<path d="M113.55 62.6896C112.87 60.9996 111.76 59.6096 110.56 58.2896C109.93 57.5996 109.29 56.9096 108.65 56.2196C108.34 55.8796 108.04 55.5396 107.76 55.1796C107.5 54.8596 107.28 54.4396 106.96 54.1796C106.91 54.1396 106.84 54.1496 106.83 54.2196C106.62 54.9196 107.23 55.7096 107.61 56.2296C108.14 56.9396 108.71 57.6096 109.28 58.2796C110.42 59.5996 111.57 60.9496 112.29 62.5596C113 64.1396 113.19 65.8196 112.65 67.4796C112.4 68.2596 112.04 68.9896 111.63 69.6896C111.27 70.3096 110.72 71.0296 110.64 71.7696C110.63 71.8596 110.75 71.8896 110.81 71.8396C111.13 71.5396 111.35 71.1096 111.61 70.7596C111.85 70.4396 112.1 70.1296 112.34 69.8096C112.85 69.1596 113.42 68.5296 113.75 67.7496C114.43 66.1396 114.19 64.2596 113.55 62.6896Z" fill="#6B3D2D"/>
<path d="M120.021 63.4303C117.841 60.3403 114.621 58.4303 111.701 56.2103C110.871 55.5803 110.041 54.9103 109.281 54.1903C108.491 53.4503 107.781 52.6403 107.021 51.8703C106.941 51.7803 106.771 51.8703 106.811 52.0003C107.401 53.6203 108.701 54.9403 109.951 56.0503C111.301 57.2403 112.781 58.2603 114.211 59.3303C116.971 61.4003 119.901 63.8603 120.751 67.4403C121.251 69.5303 120.941 71.7703 120.251 73.7803C120.161 74.0303 120.511 74.1303 120.641 73.9403C122.831 70.7503 122.161 66.4603 120.021 63.4303Z" fill="#6B3D2D"/>
<path d="M127.61 70.7999C127.36 68.1599 126.7 65.5299 125.51 63.1699C124.33 60.8199 122.57 58.9099 120.48 57.4099C118.5 55.9799 116.29 55.0299 114.07 54.0799C112.87 53.5699 111.65 53.0799 110.51 52.4199C109.38 51.7599 108.42 50.9199 107.41 50.0899C107.3 49.9999 107.06 50.0799 107.13 50.2599C107.95 52.3099 110.14 53.5399 111.98 54.4599C114.1 55.5299 116.33 56.3199 118.37 57.5599C120.45 58.8299 122.33 60.4599 123.63 62.5799C125 64.7999 125.76 67.3899 126.1 69.9799C126.31 71.6199 126.41 73.2699 126.44 74.9199C126.46 75.7899 126.47 76.6499 126.52 77.5199C126.57 78.3299 126.59 79.1499 126.81 79.9299C126.85 80.0599 127 80.0299 127.04 79.9299C127.56 78.5599 127.67 76.8999 127.72 75.4399C127.77 73.8899 127.75 72.3399 127.61 70.7999Z" fill="#6B3D2D"/>
<path d="M131.81 69.4501C131.64 66.2301 130.79 63.1301 129.25 60.3201C126.29 54.9201 121.14 51.1401 115.38 49.5001C113.7 49.0201 111.97 48.7201 110.22 48.6001C108.45 48.4801 106.63 48.7201 104.89 48.2301C104.77 48.2001 104.66 48.3701 104.77 48.4601C105.87 49.3801 107.33 49.3901 108.68 49.4501C110.21 49.5301 111.74 49.7401 113.25 50.0701C116.23 50.7301 119.09 51.9301 121.63 53.6801C126.36 56.9501 129.77 62.2501 130.46 68.1101C130.69 70.0501 130.67 72.0101 130.51 73.9501C130.34 75.8701 129.93 77.8201 129.98 79.7601C129.98 79.9201 130.22 80.0001 130.29 79.8401C131.04 78.2701 131.36 76.4401 131.57 74.7201C131.79 72.9801 131.9 71.2201 131.81 69.4501Z" fill="#6B3D2D"/>
<path d="M133.03 63.79C133.04 63.86 133.06 63.93 133.07 64C134.3 69.8 135.04 75.86 133.77 81.72C133.71 82.01 133.51 82.38 133.23 82.29C133.06 82.24 132.98 82.04 132.94 81.87C132.33 79.53 132.76 77.07 132.96 74.66C133.66 65.86 130.88 55.64 123.79 49.84C118.88 45.83 112.32 46.17 106.5 47.23C106.16 47.29 106.02 46.81 106.35 46.69C107.08 46.43 107.81 46.18 108.57 46.01C114.71 44.65 121.39 45.49 126.07 50.12C127.87 51.9 129.57 53.87 130.78 56.11C132.05 58.44 132.49 61.19 133.03 63.79Z" fill="#6B3D2D"/>
</g>
<path d="M67.4899 131.18C54.1899 120.89 45.6299 104.78 45.6299 86.6697C45.6299 55.6097 70.8099 30.4297 101.87 30.4297C108.95 30.4297 115.71 31.7397 121.95 34.1197" stroke="#FF6551" stroke-width="1.9765" stroke-miterlimit="10" stroke-linecap="round" stroke-linejoin="round" stroke-dasharray="9.88 9.88"/>
<path d="M27.4493 104.389L32.6193 104.199C33.0193 104.179 33.1693 103.669 32.8293 103.449L28.7893 100.819C28.6293 100.719 28.5593 100.519 28.6293 100.339L29.9293 96.7194C30.0693 96.3294 29.5993 95.9994 29.2793 96.2694L26.2293 98.7994C26.0893 98.9194 25.8893 98.9294 25.7393 98.8294L22.8393 96.9394C22.5293 96.7394 22.1293 97.0093 22.2093 97.3693L23.0593 101.159C23.0893 101.309 23.0393 101.459 22.9193 101.559L20.0693 103.929C19.7693 104.179 19.9593 104.669 20.3493 104.649L23.4693 104.529C23.6693 104.519 23.8393 104.659 23.8893 104.849L24.7793 108.819C24.8693 109.219 25.4293 109.249 25.5693 108.869L27.0893 104.659C27.1293 104.509 27.2793 104.399 27.4493 104.389Z" fill="#FF6551"/>
<path d="M13.1703 145.46L20.0603 145.2C20.6003 145.18 20.7903 144.49 20.3403 144.2L14.9603 140.7C14.7503 140.56 14.6603 140.3 14.7403 140.06L16.4803 135.24C16.6703 134.72 16.0403 134.28 15.6103 134.64L11.5503 138.02C11.3603 138.17 11.1003 138.19 10.8903 138.06L7.02033 135.54C6.61033 135.27 6.07033 135.64 6.18033 136.11L7.31033 141.16C7.35033 141.36 7.28033 141.56 7.13033 141.7L3.33033 144.86C2.93033 145.19 3.18033 145.84 3.70033 145.82L7.86033 145.66C8.13033 145.65 8.36033 145.83 8.42033 146.09L9.60033 151.38C9.72033 151.91 10.4703 151.96 10.6603 151.44L12.6903 145.82C12.7503 145.61 12.9503 145.47 13.1703 145.46Z" fill="#FFC652"/>
<path d="M176.1 176.36L182.65 178.52C183.16 178.69 183.58 178.11 183.26 177.68L179.43 172.52C179.28 172.32 179.29 172.04 179.45 171.85L182.76 167.94C183.12 167.52 182.68 166.89 182.15 167.08L177.16 168.83C176.93 168.91 176.68 168.83 176.53 168.64L173.78 164.93C173.49 164.53 172.86 164.69 172.79 165.18L172.09 170.3C172.06 170.5 171.92 170.67 171.73 170.74L167.06 172.38C166.57 172.55 166.58 173.25 167.07 173.41L171.02 174.71C171.27 174.79 171.43 175.04 171.39 175.3L170.65 180.67C170.58 181.21 171.26 181.52 171.62 181.1L175.48 176.54C175.65 176.35 175.88 176.28 176.1 176.36Z" fill="#FF6551"/>
<path d="M48.3592 140.18L51.0992 145.43C51.3092 145.84 51.9292 145.73 51.9992 145.28L52.7892 139.8C52.8192 139.58 52.9992 139.42 53.2192 139.4L57.6792 138.95C58.1592 138.9 58.2692 138.25 57.8292 138.05L53.6592 136.15C53.4692 136.06 53.3592 135.86 53.3892 135.66L53.9592 131.72C54.0192 131.3 53.5292 131.02 53.1992 131.28L49.6192 134.04C49.4792 134.15 49.2892 134.17 49.1292 134.1L45.2192 132.33C44.8092 132.14 44.3892 132.58 44.5992 132.98L46.2592 136.15C46.3692 136.35 46.3092 136.6 46.1292 136.74L42.3692 139.63C41.9892 139.92 42.2292 140.52 42.7092 140.47L47.9092 139.95C48.0892 139.91 48.2792 140.01 48.3592 140.18Z" fill="#864FF1"/>
<path d="M320.92 96.5002L326.33 94.0702C326.75 93.8802 326.68 93.2602 326.23 93.1702L320.8 92.0502C320.59 92.0102 320.43 91.8202 320.42 91.6002L320.24 87.1202C320.22 86.6302 319.58 86.4802 319.35 86.9102L317.21 90.9602C317.11 91.1502 316.9 91.2402 316.7 91.2002L312.8 90.4002C312.38 90.3102 312.08 90.7802 312.32 91.1402L314.86 94.8802C314.96 95.0302 314.97 95.2202 314.89 95.3702L312.89 99.1602C312.68 99.5602 313.09 100.01 313.5 99.8202L316.76 98.3602C316.97 98.2702 317.21 98.3402 317.34 98.5302L320 102.45C320.27 102.85 320.88 102.64 320.86 102.16L320.65 96.9402C320.63 96.7602 320.74 96.5802 320.92 96.5002Z" fill="#67D449"/>
<path d="M290.799 71.2494L290.439 76.7194C290.409 77.1494 289.849 77.2794 289.629 76.9194L286.939 72.5494C286.829 72.3794 286.619 72.2994 286.429 72.3594L282.519 73.6194C282.099 73.7594 281.759 73.2494 282.059 72.9094L284.859 69.7594C284.989 69.6194 285.009 69.3994 284.909 69.2394L282.969 66.0994C282.759 65.7694 283.069 65.3494 283.449 65.4494L287.479 66.4694C287.639 66.5094 287.809 66.4594 287.909 66.3394L290.529 63.3894C290.809 63.0794 291.319 63.2894 291.289 63.7094L291.069 67.0094C291.059 67.2194 291.189 67.4094 291.399 67.4594L295.619 68.5294C296.049 68.6394 296.069 69.2394 295.649 69.3694L291.089 70.8394C290.929 70.9194 290.809 71.0694 290.799 71.2494Z" fill="#FF6551"/>
<path d="M143.55 24.6095C147.45 24.5495 151.36 24.4895 155.26 24.4395C156.06 24.4295 156 25.6695 155.2 25.6895C151.3 25.7495 147.39 25.8095 143.49 25.8595C142.68 25.8695 142.75 24.6295 143.55 24.6095Z" fill="#49B3F7"/>
<path d="M142.16 27.4893C147.29 27.5193 152.41 27.5593 157.54 27.5893C158.34 27.5993 158.28 28.8393 157.48 28.8393C152.35 28.8093 147.23 28.7693 142.1 28.7393C141.29 28.7393 141.36 27.4893 142.16 27.4893Z" fill="#49B3F7"/>
<path d="M142.45 31.2092C146.99 30.5992 151.58 30.4592 156.15 30.7992C156.95 30.8592 156.89 32.1092 156.09 32.0492C151.63 31.7192 147.15 31.8392 142.72 32.4292C141.93 32.5392 141.66 31.3192 142.45 31.2092Z" fill="#49B3F7"/>
<path d="M145.1 44.2295C144.99 44.2195 144.87 44.1695 144.78 44.0895C144.58 43.9295 144.51 43.6595 144.6 43.4195C145.25 41.6295 145.71 39.7695 145.98 37.8895C143.88 37.5595 141.54 37.0495 139.48 35.9195C136.99 34.5695 135.26 32.4595 134.71 30.1395C134.21 27.9895 134.57 25.9995 135.8 24.2395C138.19 20.7795 143.32 18.9895 146.98 18.5095C151.87 17.8695 156.69 18.2695 159.28 18.9595L159.46 19.0095C161.77 19.6195 164.17 20.2495 165.9 22.2495C167.81 24.4595 168.07 27.9995 166.53 30.8695C165.26 33.2495 162.86 35.1895 159.76 36.3495C157.16 37.3195 154.41 37.6695 151.73 37.9895C150.8 40.7995 148.14 42.5795 145.48 44.1595C145.36 44.2195 145.23 44.2395 145.1 44.2295ZM147.13 19.7095C143.45 20.1895 138.82 21.9895 136.79 24.9295C135.77 26.4095 135.47 28.0695 135.89 29.8695C136.36 31.8495 137.87 33.6695 140.06 34.8595C142.14 35.9895 144.51 36.4495 146.75 36.7795C147.07 36.8295 147.3 37.1195 147.26 37.4495C147.07 39.0695 146.74 40.6795 146.27 42.2495C148.32 40.9295 150.13 39.3995 150.69 37.2795C150.75 37.0395 150.96 36.8595 151.21 36.8295C153.94 36.5095 156.76 36.1795 159.35 35.2195C162.17 34.1695 164.35 32.4195 165.48 30.3095C166.78 27.8695 166.59 24.8795 165 23.0495C163.51 21.3295 161.4 20.7795 159.17 20.1895L158.99 20.1395C156.56 19.4995 151.83 19.0995 147.13 19.7095Z" fill="#49B3F7"/>
</svg>
