<svg width="449" height="354" fill="none" xmlns="http://www.w3.org/2000/svg"><path d="M303.784 341.752c79.961 0 144.783-2.459 144.783-5.492s-64.822-5.492-144.783-5.492c-79.962 0-144.784 2.459-144.784 5.492s64.822 5.492 144.784 5.492Z" fill="#D2CBEC"/><path d="m275.659 276.955-3.839 9.813-17.604 44.935h-5.734s9.398-32.945 13.773-48.32c1.28-4.504 2.139-7.495 2.201-7.722l5.365.595 5.838.699Z" fill="#FF6551"/><path d="m275.66 276.912-3.84 9.812-17.604 44.98h-1.771l17.376-55.448 5.839.656Z" fill="#CC9281" style="mix-blend-mode:multiply" opacity=".44"/><path d="m264.456 275.661 11.204 1.294-3.84 9.813a77.905 77.905 0 0 1-9.564-3.341c1.28-4.548 2.139-7.539 2.2-7.766Z" fill="#CC9281" style="mix-blend-mode:multiply" opacity=".44"/><path d="M310.807 331.703h-5.558l-5.549-41.104-2.157-15.988.649.088 10.52 1.443c0 .332.228 6.297.526 14.203.622 16.477 1.569 41.358 1.569 41.358Z" fill="#FF6551"/><path d="M307.16 331.704h-1.911l-5.549-41.088-2.157-15.987.649.087 4.611 7.994.079.866 4.278 48.128Z" fill="#CC9281" style="mix-blend-mode:multiply" opacity=".44"/><path d="M308.712 276.159c0 .333.228 6.297.526 14.203-3.314.219-6.496.298-9.538.254l-2.157-15.987 11.169 1.53Z" fill="#CC9281" style="mix-blend-mode:multiply" opacity=".44"/><path d="M356.753 331.703h-5.733l-17.7-45.241-3.744-9.507 4.988-.56 6.225-.69c.061.227.938 3.323 2.253 7.941 4.41 15.427 13.711 48.057 13.711 48.057Z" fill="#FF6551"/><path d="M352.712 331.703h-1.692l-17.7-45.241-3.744-9.507 4.988-.559c3.157 9.838 14.352 43.798 18.148 55.307Z" fill="#CC9281" style="mix-blend-mode:multiply" opacity=".44"/><path d="M343.068 283.602a146.144 146.144 0 0 1-9.722 2.86l-3.77-9.507 11.213-1.25c.061.183.938 3.279 2.279 7.897Z" fill="#CC9281" style="mix-blend-mode:multiply" opacity=".44"/><path d="M357.919 227.752a73.37 73.37 0 0 1-.36 2.554 68.494 68.494 0 0 1-1.753 8.221 9.436 9.436 0 0 1-.149.533c-2.674 9.699-4.147 19.293-14.763 25.642-2.052 1.225-4.699 2.099-6.795 3.245l-.105.061a57.987 57.987 0 0 1-13.211 5.248c-13.747 3.76-29.185 5.405-43.054 1.399a28.012 28.012 0 0 1-10.924-6.122 35.825 35.825 0 0 1-3.506-3.656 33.705 33.705 0 0 1-.719-.874c-.237-.298-.474-.595-.701-.875a69.328 69.328 0 0 1-2.569-3.787 59.003 59.003 0 0 1-1.964-3.507l-.263-.516c-.166-.332-.342-.682-.5-1.023a15.05 15.05 0 0 1-.245-.516c-.079-.175-.289-.621-.43-.927-.14-.306-.271-.63-.412-.936a87.65 87.65 0 0 1-1.157-2.842 80.555 80.555 0 0 1-1.052-2.886 128.36 128.36 0 0 1-1.955-6.122l-.114-.376a395.017 395.017 0 0 1-1.806-6.402c-2.63-9.62-5.26-19.477-4.874-29.465a44.64 44.64 0 0 1 6.996-22.388 44.797 44.797 0 0 1 17.393-15.778c6.479-3.279 13.738-4.897 20.891-5.798 7.794-.98 15.781-1.627 23.671-.98a46.399 46.399 0 0 1 15.447 4.084 50.303 50.303 0 0 1 17.454 13.311c7.654 9.087 10.749 22.153 11.827 33.741a84.679 84.679 0 0 1-.298 17.737Z" fill="#864FF1"/><path d="M357.918 227c-4.051-22.346-17.315-64.404-59.474-58.282-48.595 7.067-48.305 56.218-47.174 70.631l-.114-.376a378.268 378.268 0 0 1-1.806-6.402c-2.63-9.621-5.26-19.477-4.875-29.465a44.675 44.675 0 0 1 6.998-22.391 44.818 44.818 0 0 1 17.392-15.784c6.478-3.271 13.737-4.888 20.891-5.789 7.794-.98 15.78-1.627 23.67-.98a46.4 46.4 0 0 1 15.439 4.049 50.187 50.187 0 0 1 17.454 13.294c7.654 9.087 10.748 22.153 11.827 33.741a84.7 84.7 0 0 1-.228 17.754Z" fill="#A277F4"/><path style="mix-blend-mode:multiply" opacity=".45" d="M357.918 227a61.28 61.28 0 0 1-.351 2.554 70.316 70.316 0 0 1-1.753 8.22c-.044.184-.097.359-.14.534-2.63 9.62-2.692 18.112-10.521 24.488-1.849 1.504-8.766 3.236-11.028 4.417l-.105.061-67.189.533a35.82 35.82 0 0 1-3.507-3.655 37.971 37.971 0 0 1-.719-.875 95.529 95.529 0 0 0-.701-.875 69.873 69.873 0 0 1-2.569-3.786 51.39 51.39 0 0 1-1.429-2.493c-.184-.332-.359-.673-.534-1.014l-.263-.516-.5-1.024a13.409 13.409 0 0 1-.246-.516c-.149-.306-.289-.621-.429-.927-.14-.306-.272-.629-.412-.936a85.44 85.44 0 0 1-1.157-2.842 80.57 80.57 0 0 1-1.053-2.886l.711-5.554s9.477 8.178 50.233 5.685c40.757-2.492 52.338-16.739 53.662-18.593Z" fill="url(#a)"/><path d="M348.004 255.371c-.281.437-.561.874-.877 1.294a38.595 38.595 0 0 1-6.286 7.285 41.405 41.405 0 0 1-10.643 6.472 85.778 85.778 0 0 1-43.553 6.533 44.9 44.9 0 0 1-8.662-1.609 31.791 31.791 0 0 1-17.63-14.133 26.778 26.778 0 0 1-1.288-2.44c-.185-.394-.36-.796-.535-1.207-.193-.455 11.02-4.539 44.868-4.373 32.437.123 41.283-.245 44.255 1.915.122.081.239.169.351.263Z" fill="#864FF1"/><path d="M347.653 255.091a5.537 5.537 0 0 0-.5.56c-1.841 2.361-9.582 9.55-41.291 11.177-31.71 1.626-43.79-5.248-43.79-5.248l-3.007-2.781c-.185-.393-.36-.796-.535-1.207-.193-.455 11.02-4.539 44.868-4.373 32.446.07 41.283-.297 44.255 1.872Z" fill="#FFAE43" style="mix-blend-mode:multiply" opacity=".56"/><path d="M244.1 262.245s-16.543-32.683-5.629-39.225c10.792-6.41 14.711 10.207 17.806 20.894 3.095 10.687 18.41 32.814 46.552 31.432 34.786-1.705 45.964-16.188 51.101-33.085 5.138-16.897 6.233-19.87 12.546-19.87 6.312 0 11.282 19.931-8.364 42.924-19.646 22.992-61.368 22.572-74.106 20.255-12.738-2.318-29.307-6.315-39.906-23.325Z" fill="#864FF1"/><path d="M292.667 308.667a.448.448 0 0 1-.289.254 24.354 24.354 0 0 1-3.156.979l-4.121 1.076c-4.251 1.12-8.521 2.239-12.843 3.07a7.845 7.845 0 0 1-2.586.21 1.752 1.752 0 0 1-1.078-.481 1.898 1.898 0 0 1-.377-.779 8.195 8.195 0 0 1-.176-3.717 8.974 8.974 0 0 1 3.411-5.623 9.658 9.658 0 0 1 9.967-.717c.366.227.766.395 1.184.498a1.087 1.087 0 0 0 1.131-.419c.104-.21.159-.44.158-.674a9.338 9.338 0 0 0-.982-4.591l4.935-.411a102.687 102.687 0 0 1 3.437 7.573c.473 1.155.877 2.318 1.35 3.499.04.078.052.167.035.253Zm52.155 4.329a1.898 1.898 0 0 1-.377.779c-.293.28-.674.45-1.079.481a7.845 7.845 0 0 1-2.586-.21c-4.322-.875-8.583-1.95-12.843-3.07l-4.121-1.076a24.879 24.879 0 0 1-3.156-.979.443.443 0 0 1-.289-.254.45.45 0 0 1 0-.262c.421-1.155.877-2.3 1.332-3.437a106.657 106.657 0 0 1 3.455-7.626l4.944.411a9.143 9.143 0 0 0-.973 4.565c-.004.233.047.464.149.673a1.084 1.084 0 0 0 1.131.42c.419-.1.819-.268 1.183-.498a9.652 9.652 0 0 1 5.085-1.03 9.647 9.647 0 0 1 4.883 1.747 9.002 9.002 0 0 1 3.507 6.559c.083.943 0 1.893-.245 2.807Z" fill="#495059"/><path d="M318.118 236.725c-3.06-.324-22.242 1.749-30.053 1.53-.929-4.197-2.279-9.261-3.419-13.914a90.79 90.79 0 0 1-1.753-11.737c-.219-2.239 2.63-3.9 6.566-4.469 7.504-1.076 17.665-1.968 23.556-.962 1.149.193 6.497 1.749 6.882 2.825 1.605 4.452-1.376 23.01-1.779 26.727Z" fill="#fff"/><path d="M343.944 263.399a9.742 9.742 0 0 0-.456-2.746 10.029 10.029 0 0 0-1.578-2.798c-2.56-3.297-6.303-5.458-10.099-7.216a43.973 43.973 0 0 0-6.944-2.623 27.679 27.679 0 0 0-3.287-.674c-4.226-.577-8.504 0-12.774.105v-.096c-.78.07-1.56.105-2.331.122-.772.018-1.561-.052-2.332-.122a.31.31 0 0 0 0 .096c-4.261-.122-8.548-.682-12.774-.105-1.652.239-3.28.622-4.865 1.146a48.514 48.514 0 0 0-5.366 2.134c-3.787 1.749-7.539 3.918-10.09 7.215a10.073 10.073 0 0 0-1.587 2.799 10.468 10.468 0 0 0-.456 3.621c.013.877.078 1.753.193 2.623a53.768 53.768 0 0 0 3.209 11.238c.14.385.298.788.464 1.199 3.235 8.046 10.731 20.727 10.731 20.727.877.315 2.858-.297 4.129-.761.684-.245 1.166-.455 1.166-.455s-.386-3.148-.517-4.565a107.694 107.694 0 0 0-1.341-9.472 43.42 43.42 0 0 1-1.158-8.981 7.204 7.204 0 0 1 .982-3.84c1.157-1.749 3.332-2.431 5.357-2.93 2.025-.498 4.278-.953 6.417-1.425a35.963 35.963 0 0 1 15.631 0c2.139.472 4.296.874 6.417 1.425 2.122.551 4.2 1.199 5.357 2.93a7.212 7.212 0 0 1 .991 3.84c.079 3.017-.614 6.008-1.166 8.981a107.322 107.322 0 0 0-1.342 9.472c-.131 1.417-.508 4.565-.508 4.565s.798.35 1.806.683c1.227.402 2.744.795 3.507.533 0 0 8.284-13.993 11.195-21.926.421-1.145.876-2.3 1.236-3.454 1.264-3.329 2-6.835 2.183-10.39v-.875Z" fill="#49B3F7"/><path d="M324.876 248.033s-4.059 5.545-17.717 6.472c-11.555.787-18.682-4.373-20.602-6a28.363 28.363 0 0 1 4.874-1.145c4.217-.578 8.504 0 12.764.105v-.097c.772.07 1.552.105 2.332.123.781.017 1.552-.053 2.332-.123v.097c4.27-.123 8.548-.683 12.774-.105 1.093.159 2.177.384 3.243.673Z" fill="#3DA6C0" style="mix-blend-mode:multiply" opacity=".4"/><path d="M320.037 218.525c.342 3.35.973 28.048.254 28.695-3.761 3.393-8.591 3.691-12.957 3.83-6.137.184-12.563 0-17.735-3.218-.763-.481-1.122-3.498-1.307-4.425-1.753-8.597-5.005-21.935-5.61-24.882h37.355Z" fill="#fff"/><path d="M310.061 230.463c-4.787.481-10.196.936-13.623 4.723l8.056.157c2.467.154 4.943-.02 7.364-.516-.044-.376-.613-4.478-.929-4.443l-.868.079Z" fill="#FFBF94"/><path d="M318.977 209.342s20.164 15.55 21.382 18.366c1.219 2.816-.508 5.798-4.558 5.335-4.051-.464-17.928-12.174-17.928-12.174s-5.374-4.014-4.848-6.848c.526-2.834 2.577-5.982 5.952-4.679Z" fill="#fff"/><path d="M338.273 225.767c-7.715-4.548-22.794 1.346-29.974 4.609 2.63 2.177 1.753 4.372 1.972 4.757 0 0 17.946-.306 24.302-.49 6.356-.183 8.179-6.227 3.7-8.876Z" fill="#fff"/><path d="M309.14 230.096c2.419-.481 4.778-1.697 7.092-2.537a55.934 55.934 0 0 1 7.013-2.081 36.838 36.838 0 0 1 6.707-.822 25.594 25.594 0 0 1 7.013.472v-.044a18.711 18.711 0 0 0-6.461-1.285 32.79 32.79 0 0 0-6.969.761 45.954 45.954 0 0 0-7.277 2.326 42.567 42.567 0 0 0-7.127 3.157v.053h.009Z" fill="#D6D6D6"/><path d="M292.667 308.667a.448.448 0 0 1-.289.254 24.51 24.51 0 0 1-3.156.979l-4.121 1.076c-4.251 1.12-8.521 2.239-12.843 3.07a7.845 7.845 0 0 1-2.586.21 1.752 1.752 0 0 1-1.078-.481 1.898 1.898 0 0 1-.377-.779 8.196 8.196 0 0 1-.176-3.717c1.754.875 7.373 3.026 16.508-.332a17.828 17.828 0 0 0 6.733-4.032c.473 1.155.877 2.318 1.35 3.499.04.078.052.167.035.253Zm52.155 4.329a1.898 1.898 0 0 1-.377.779c-.293.28-.674.45-1.079.481a7.845 7.845 0 0 1-2.586-.21c-4.322-.875-8.583-1.95-12.843-3.07l-4.121-1.076a24.879 24.879 0 0 1-3.156-.979.443.443 0 0 1-.289-.254.45.45 0 0 1 0-.262c.421-1.155.877-2.3 1.332-3.437a25.96 25.96 0 0 0 12.528 5.606c3.611.543 7.291.413 10.854-.385a8.104 8.104 0 0 1-.263 2.807Z" fill="#495059" style="mix-blend-mode:multiply" opacity=".4"/><path d="M325.877 299.563a22.675 22.675 0 0 1-1.806-.682s.377-3.149.509-4.566c.306-3.174.754-6.34 1.341-9.471.552-2.974 1.245-5.965 1.166-8.982a7.197 7.197 0 0 0-.991-3.839c-1.157-1.749-3.331-2.432-5.356-2.93-2.025-.499-4.278-.953-6.418-1.426a35.994 35.994 0 0 0-15.631 0c-2.139.473-4.295.875-6.417 1.426-2.122.551-4.199 1.198-5.357 2.93a7.193 7.193 0 0 0-.981 3.839c.072 3.02.46 6.024 1.157 8.964a107.694 107.694 0 0 1 1.341 9.472c.132 1.417.517 4.565.517 4.565s-.482.21-1.166.455c0 0-10.143-24.672-5.023-30.007 5.12-5.334 17.7-7.809 24.679-7.739 6.978.069 18.261 2.203 22.136 6.401s-4.428 27.077-3.7 31.59Zm18.066-35.289a34.21 34.21 0 0 1-2.175 10.442 8.405 8.405 0 0 1-.666-.489 7.939 7.939 0 0 1-2.761-4.093 1.8 1.8 0 0 1 0-.875c.166-.568.762-.875 1.28-1.163a10.652 10.652 0 0 0 4.383-4.653c-.061.245-.061.542-.061.831Zm-67.748 10.267c-.166 1.356-1.271 2.37-2.165 3.402-.4.45-.77.926-1.105 1.426a37.025 37.025 0 0 1-.464-1.198 53.768 53.768 0 0 1-3.209-11.238 19.639 19.639 0 0 0 1.972 2.291c1.359 1.356 2.867 2.554 4.34 3.804.179.139.335.305.465.49.169.313.227.673.166 1.023Z" fill="#3DA6C0" style="mix-blend-mode:multiply" opacity=".4"/><path d="M313.023 207.208c-.175.411-2.577 6.008-8.767 6.253-5.567.219-9.512-4.932-10.266-6.008 6.391-.848 12.905-1.294 19.033-.245Z" fill="#D6D6D6"/><path d="m311.691 200.22-.762 3.35-.675 3-.053.253s-1.306 3.988-6.531 4.085c-5.225.096-6.698-3.813-6.698-3.813v-.805l-.114-3.026-.131-3.682c0-13.993 11.607 1.041 11.607 1.041l1.122-.263.07.717 2.165-.857Z" fill="#EA9573"/><path d="m310.928 203.57-.675 3a11.622 11.622 0 0 1-6.031 1.95 15.807 15.807 0 0 1-7.215-2.23l-.114-3.026 11.475-2.624 1.193.455 1.367 2.475Z" fill="#DD664A" style="mix-blend-mode:multiply" opacity=".09"/><path d="m336.52 187.058-.158.393a20.868 20.868 0 0 1-3.568 5.86c-2.078 2.274-4.857 3.761-7.575 5.248a106.052 106.052 0 0 1-14.64 6.847c-2.683.936-5.558 1.662-8.346 1.137a17.35 17.35 0 0 1-6.225-2.921 82.382 82.382 0 0 1-15.727-13.652 17.286 17.286 0 0 1-3.717-5.65 18.12 18.12 0 0 1-.57-6.996c0-.604.07-1.198.114-1.749a167.375 167.375 0 0 1 5.9-34.248l.342-.928c.061-5.247 5.181-8.99 10.081-10.932a45.772 45.772 0 0 1 35.12.752c4.796 2.152 9.319 5.248 12.274 9.621 3.296 4.862 4.383 10.949 4.12 16.818-.263 5.868-1.753 11.605-3.252 17.281a97.562 97.562 0 0 1-4.173 13.119Z" fill="#FFBF94"/><path d="M336.362 187.451a20.868 20.868 0 0 1-3.568 5.86c-2.078 2.274-4.857 3.761-7.575 5.247a105.941 105.941 0 0 1-14.64 6.848c-2.683.936-5.558 1.662-8.346 1.137a17.35 17.35 0 0 1-6.225-2.921 82.382 82.382 0 0 1-15.727-13.652 17.286 17.286 0 0 1-3.717-5.65 18.12 18.12 0 0 1-.57-6.996c0-.604.07-1.198.114-1.749.263.245 1.464 0 1.753.734 3.007 8.396 14.904 21.287 26.09 24.016 11.186 2.729 31.017-13.477 31.017-13.477l1.394.603Zm-55.749-28.563-.394 2.851s8.495-8.641 9.24-16.844c0 0 4.743 6.996 15.728 10.32 10.984 3.323 17.656.341 17.656.341s-2.963-2.877-3.673-5.379c0 0 9.249 4.679 15.412 1.662 0 0-2.288 5.746 1.569 13.25 3.857 7.504 3.954 10.119 3.954 10.119l3.84-19.556-6.234-16.94-18.462-3.044-25.976.481-6.085-1.041s-3.436 5.633-3.761 6.875c-.324 1.241-2.814 16.905-2.814 16.905Z" fill="#DD664A" style="mix-blend-mode:multiply" opacity=".09"/><path d="M277.168 165.631a217.92 217.92 0 0 1-1.324-7.145l-.131-.779c-1.07-6.612-1.754-13.512.508-19.809a19.128 19.128 0 0 1 5.015-7.617 17.11 17.11 0 0 1 2.253-1.75 13.032 13.032 0 0 1 8.249-2.203v.279c-2.7 3.892-3.664 8.493-4.383 13.233a99.303 99.303 0 0 1-1.946 11.229 33.93 33.93 0 0 1-8.241 14.562Z" fill="#672410"/><path d="M342.498 188.624a12.096 12.096 0 0 1-7.566-1.828 14.854 14.854 0 0 1-1.604-1.137l4.48-8.405c2.008-2.624 5.786-4.032 8.767-2.624a6.303 6.303 0 0 1 3.191 3.499 7.162 7.162 0 0 1 .158 4.836 8.944 8.944 0 0 1-7.426 5.659Z" fill="#FFBF94"/><path d="M346.074 168.841a35.735 35.735 0 0 1-6.084 7.626c.596-4.154-1.14-8.238-2.122-12.323a35.842 35.842 0 0 1-.675-3.708 34.767 34.767 0 0 1 .789-12.83l9.179-5.335.772-.446.447.289c2.235 1.635 2.849 4.836 2.884 7.67a36.4 36.4 0 0 1-5.19 19.057Z" fill="#672410"/><path d="M346.074 168.841c2.043-6.236 4.611-16.346-.386-15.743-4.997.604-7.416 4.767-8.495 7.321a34.764 34.764 0 0 1 .789-12.83l9.179-5.318 1.219-.157c2.235 1.635 2.849 4.836 2.884 7.67a36.4 36.4 0 0 1-5.19 19.057Z" fill="#672410" style="mix-blend-mode:multiply" opacity=".32"/><path d="M295.456 156.431a1.03 1.03 0 0 0-.254-.499 1.397 1.397 0 0 0-.579-.297c-1.324-.35-2.893.236-4.155.629a9.923 9.923 0 0 0-4.226 2.335c-.701.709-1.683 2.064-.561 2.878 1.254.874 3.165 0 4.384-.516 1.753-.744 5.409-1.819 5.435-4.154a1.358 1.358 0 0 0-.044-.376Zm37.399 10.328c-.342-1.627-2.341-2.956-3.708-3.656a9.326 9.326 0 0 0-6.759-.979 1.544 1.544 0 0 0-.816.455 1.156 1.156 0 0 0 0 1.242 3.1 3.1 0 0 0 .877.944 30.46 30.46 0 0 0 3.691 2.327 14.142 14.142 0 0 0 3.778 1.626c1.307.298 3.305-.21 2.937-1.959Z" fill="#672410"/><path d="M311.665 194.483a7.9 7.9 0 0 1-6.426 2.51 8.507 8.507 0 0 1-6.434-3.376 14.236 14.236 0 0 1-2.403-5.081 13.02 13.02 0 0 1-.341-1.749c.263 0 10.914 4.233 18.839.944-.154.86-.389 1.703-.701 2.519a12.591 12.591 0 0 1-2.534 4.233Z" fill="#A33"/><path d="M314.207 190.224a16.23 16.23 0 0 1-8.688 1.53 21.766 21.766 0 0 1-9.109-3.218 13.022 13.022 0 0 1-.342-1.749c.263 0 10.915 4.233 18.84.944a14.011 14.011 0 0 1-.701 2.493Z" fill="#fff"/><path d="M311.666 194.483a7.897 7.897 0 0 1-6.426 2.51 8.484 8.484 0 0 1-6.435-3.376 7.729 7.729 0 0 1 6.136.709s1.368-1.671 6.725.157Z" fill="#FF6551"/><path d="M341.666 181.347c2.192-.761 4.383-2.545 4.576-4.941a.138.138 0 0 0-.089-.147.142.142 0 0 0-.165.05c-1.333 1.994-2.709 3.726-5.19 4.277a.494.494 0 0 0-.377.306.502.502 0 0 0 .061.481c.542.714.9 1.548 1.044 2.431a5.843 5.843 0 0 0 .368 2.056c.015.032.037.06.064.083a.233.233 0 0 0 .2.048.224.224 0 0 0 .095-.044c1.166-1.146.281-3.279-.587-4.6Z" fill="#DD664A" style="mix-blend-mode:multiply" opacity=".25"/><path d="M300.671 198.375a5.487 5.487 0 0 0 1.894 1.753 5.52 5.52 0 0 0 2.489.696c.938 0 3.261-.455 3.27-1.688 0-.07 0-.149-.114-.149-.491 0-.666.262-1.113.499-.65.322-1.37.482-2.096.463a6.225 6.225 0 0 1-3.997-1.942c-.228-.218-.535.14-.369.368h.036Z" fill="#DD664A"/><path d="M348.828 143.802c-2.165 2.562-5.26 4.066-8.442 5.457a67.097 67.097 0 0 1-13.536 4.382c-9.003 1.871-18.98 1.635-26.861-3.604-1.105-.734-9.933-6.646-13.729-10.32l-1.052-3.638-1.999-6.848c.199-1.236.492-2.455.877-3.647 2.998-9.366 11.134-12.515 19.865-14.649 10.415-2.545 23.066.403 32.367 5.248.789.411 1.561.874 2.332 1.294 4.138 2.431 8.004 5.527 10.52 9.62 2.516 4.093 3.376 9.332 1.535 13.757a11.532 11.532 0 0 1-1.877 2.948Z" fill="#672410"/><path d="M277.168 165.631c-.482-2.37-.92-4.758-1.324-7.145l-.131-.779c9.898-5.247 5.523-27.426 5.523-27.426a17.083 17.083 0 0 1 2.253-1.749 35.314 35.314 0 0 1 3.875 11.308 99.265 99.265 0 0 1-1.946 11.229 33.936 33.936 0 0 1-8.25 14.562Z" fill="#56170D"/><path d="M279.667 175.024a30.04 30.04 0 0 1-1.832 1.18c-1.806 1.059-3.753 1.846-5.751 1.426-2.788-.577-5.795-3.114-6.558-5.877a7.44 7.44 0 0 1 .316-4.513c.256-.684.576-1.343.955-1.968a9.006 9.006 0 0 1 1.964-2.422c3.419-2.904 7.346-1.12 10.757.769l.149 11.405Z" fill="#FFBF94"/><path d="M274.537 170.126c-1.797-1.46-2.306-3.691-2.253-5.903a.213.213 0 0 0-.035-.143.214.214 0 0 0-.268-.07.21.21 0 0 0-.1.108c-.965 2.221-.044 4.679 1.56 6.341-.668.452-1.299.958-1.885 1.513a4.95 4.95 0 0 0-1.578 2.099.613.613 0 0 0 .938.699 10.44 10.44 0 0 0 1.569-1.889 11.84 11.84 0 0 1 2.061-1.959.505.505 0 0 0 .194-.4.506.506 0 0 0-.203-.396Z" fill="#DD664A" style="mix-blend-mode:multiply" opacity=".25"/><path d="M323.781 134.75c.225-.053.459-.053.684 0 1.249.311 2.435.835 3.506 1.548a28.741 28.741 0 0 0 10.766 3.498 9.937 9.937 0 0 1-1.894-6.638c.002-.35.109-.691.307-.979a1.293 1.293 0 0 1 1.447-.254c.47.217.9.513 1.271.875a8.383 8.383 0 0 0 3.717 1.994c5.137 1.014 3.551-3.857 4.103-6.953-.053.323.701 1.408.833 1.749.285.74.502 1.504.649 2.283.299 1.561.314 3.164.043 4.731a10.705 10.705 0 0 1-4.216 6.997c-3.507 2.501-8.233 2.466-12.204 1.311a13.036 13.036 0 0 1-4.673-2.457 20.33 20.33 0 0 0 4.559 8.623c-6.075-1.014-10.932-3.935-15.973-7.346 1.92 3.227 3.936 6.55 7.013 8.746a16.164 16.164 0 0 1-6.445-2.222 16.11 16.11 0 0 1-4.951-4.679 14.956 14.956 0 0 0 5.321 8.833c-1.753.053-3.568.28-5.304.166a23.604 23.604 0 0 1-5.602-1.206c-3.647-1.207-13.018-6.289-19.427-13.346v-.193a35.951 35.951 0 0 0-1.368-5.571c.132.411 7.014 9.209 21.865 14.518-.64-.227-1.026-3.498-1.122-4.119-.288-1.56-.274-3.16.043-4.714.12-.423.376-.795.728-1.058 1.035-.7 1.666.489 2.244 1.172a15.983 15.983 0 0 0 4.322 3.909c-.447-2.256-.876-4.662.106-6.857.482-1.084 3.831 2.16 4.12 2.388a27.098 27.098 0 0 0 3.507 2.562 13.91 13.91 0 0 1 2.98 1.636 11.707 11.707 0 0 1-1.578-8.072c.016-.292.141-.567.351-.77a.724.724 0 0 1 .272-.105Z" fill="#56170D"/><path d="M347.653 120.407a6.843 6.843 0 0 1-.333.498 15.574 15.574 0 0 1-5.966 5.004 15.603 15.603 0 0 1-7.649 1.494c-4.112-.297-7.96-2.238-12.072-2.623a4.886 4.886 0 0 0-2.919.411c-1.333.761-1.912 2.484-3.279 3.192-1.368.708-2.876.227-4.103-.542-1.227-.77-2.244-1.837-3.507-2.563-1.262-.726-2.893-1.067-4.103-.28-1.946 1.26-1.49 4.277-2.796 6.184-1.122 1.635-3.349 2.134-5.348 2.02-4.804-.271-9.03-3.42-11.555-7.574 4.384-13.617 19.752-15.742 29.545-13.836 17.989 3.499 22.557 9.262 28.658 9.192a31.298 31.298 0 0 0 5.427-.577Z" fill="#672410" style="mix-blend-mode:screen" opacity=".28"/><path d="M310.92 179.195a3.897 3.897 0 0 0-2.183-2.273 6.8 6.8 0 0 0-3.182-.473c-1.482.097-3.007.516-3.77 1.916-.173.28-.253.607-.228.935a.935.935 0 0 0 .947.823 1.91 1.91 0 0 0 .658-.28 5.026 5.026 0 0 1 3.576-.07c1.147.419 2.356.64 3.577.656a.902.902 0 0 0 .333-.07c.395-.184.412-.744.272-1.164Z" fill="#DD664A" style="mix-blend-mode:multiply" opacity=".09"/><path d="M310.008 182.047c-.254-1.347-2.902-1.522-4.015-1.566-1.482-.061-3.182.096-4.261 1.216 0 0 0 .122.053.131 1.429.079 2.823-.297 4.261-.14a8.252 8.252 0 0 1 2.323.586c.552.219.877.464 1.411.193a.403.403 0 0 0 .228-.42Z" fill="#DD664A"/><path d="M277.835 176.205c-1.806 1.058-3.753 1.845-5.751 1.425-2.788-.577-5.795-3.113-6.558-5.877a7.44 7.44 0 0 1 .316-4.513c.256-.684.576-1.343.955-1.968-.079 1.723.447 8.641 11.038 10.933Zm64.662 12.418a12.084 12.084 0 0 1-7.565-1.827c11.3 1.443 14.851-8.746 14.851-8.746a7.162 7.162 0 0 1 .157 4.836 8.927 8.927 0 0 1-2.905 3.923 8.962 8.962 0 0 1-4.538 1.814Z" fill="#DD664A" style="mix-blend-mode:multiply" opacity=".09"/><path d="M292.036 179.353c3.564 0 6.453-2.882 6.453-6.437s-2.889-6.437-6.453-6.437c-3.563 0-6.452 2.882-6.452 6.437s2.889 6.437 6.452 6.437Z" fill="#fff"/><path d="M296.474 173.879a4.8 4.8 0 0 0-3.579-5.776 4.812 4.812 0 0 0-5.789 3.57 4.8 4.8 0 0 0 3.578 5.776 4.813 4.813 0 0 0 5.79-3.57Z" fill="#191919"/><path d="M291.577 171.286a1.281 1.281 0 0 1-.795 1.187 1.293 1.293 0 0 1-1.405-.278 1.28 1.28 0 0 1-.279-1.401 1.288 1.288 0 0 1 1.191-.794 1.287 1.287 0 0 1 1.288 1.286Zm31.055 11.399c3.564 0 6.452-2.882 6.452-6.437s-2.888-6.437-6.452-6.437c-3.563 0-6.452 2.882-6.452 6.437s2.889 6.437 6.452 6.437Z" fill="#fff"/><path d="M326.21 180.185a4.794 4.794 0 0 0 0-6.79 4.822 4.822 0 0 0-6.807 0 4.794 4.794 0 0 0 0 6.79 4.822 4.822 0 0 0 6.807 0Z" fill="#191919"/><path d="M322.595 175.294a1.292 1.292 0 0 1-.801 1.196 1.3 1.3 0 0 1-1.414-.28 1.297 1.297 0 0 1-.281-1.411 1.292 1.292 0 0 1 1.198-.799 1.306 1.306 0 0 1 .921.377 1.29 1.29 0 0 1 .377.917Zm-33.882 42.479c-1.753 2.326-4.304 4.312-6.409 6.341-1.087 1.04-2.358 2.037-3.34 3.157a48.206 48.206 0 0 1-5.207 5.588 17.196 17.196 0 0 1-2.28 1.75c-3.042 1.81-9.117 2.081-8.284-2.904.535-3.245 12.273-15.244 18.945-20.019 1.482-1.058 3.086-2.125 4.901-2.186a4.24 4.24 0 0 1 2.936 1.102 2.82 2.82 0 0 1 .965 1.915c.123 1.74-1.184 3.909-2.227 5.256Z" fill="#fff"/><path d="M296.771 233.227c.106.97-.157 1.67-1.253 1.478a2.633 2.633 0 0 1-1.271-.875c-.053.324.096.682 0 .988a.797.797 0 0 1-1.026.324 2.199 2.199 0 0 1-.877-.779c.035.291.035.585 0 .875a.356.356 0 0 1-.087.201.278.278 0 0 1-.202.061 3.552 3.552 0 0 1-3.033-1.329c-.263 2.877-3.831.42-5.103 0-.806-.271-2.016-.568-2.34-1.469-1.175-3.306 3.506-4.81 5.83-5.125a16.651 16.651 0 0 1 4.62-.271c1.262.183 2.682.559 3.313 1.749a14.52 14.52 0 0 1 1.429 4.172Z" fill="#FFBF94"/><path d="M265.448 235.693a3.19 3.19 0 0 1-2.338-2.702c-.05-.42-.015-.845.102-1.251a5.254 5.254 0 0 1 4.384-4.084 75.864 75.864 0 0 1 11.8-.359c2.174.105 4.383-.14 6.566.14-1.92 2.134-1.929 5.999-1.324 8.518.009 0-15.386.647-19.19-.262Z" fill="#fff"/><path d="m284.04 221.743-6.136 5.248a22.67 22.67 0 0 0-4.156 1.154c3.866-.157 7.737-.113 11.599.131l.613-.874-6.671-.437 4.383-3.971.368-1.251Z" fill="#D6D6D6"/><path d="M183.178 353.192c84.397 0 152.814-3.106 152.814-6.937 0-3.831-68.417-6.937-152.814-6.937-84.396 0-152.813 3.106-152.813 6.937 0 3.831 68.417 6.937 152.813 6.937Z" fill="#6B6B6B" style="mix-blend-mode:multiply" opacity=".7"/><path d="m152.979 284.018-4.345 11.152-19.902 51.085h-6.488l15.596-54.892c1.438-5.109 2.411-8.518 2.48-8.776l6.072.686 6.587.745Z" fill="#864FF1"/><path d="m152.979 284.008-4.345 11.151-19.911 51.096h-1.994l19.653-62.983 6.597.736Z" fill="#CC9281" style="mix-blend-mode:multiply" opacity=".44"/><path d="m140.31 282.587 12.669 1.431-4.345 11.151a87.516 87.516 0 0 1-10.804-3.796c1.439-5.119 2.411-8.528 2.48-8.786Z" fill="#CC9281" style="mix-blend-mode:multiply" opacity=".44"/><path d="M192.743 346.255h-6.29l-6.27-46.713-2.441-18.168.724.109 11.906 1.63c0 .388.258 7.156.595 16.141.704 18.735 1.776 47.001 1.776 47.001Z" fill="#864FF1"/><path d="M188.616 346.255h-2.163l-6.27-46.673-2.451-18.168.735.109 5.218 9.084.089.974 4.842 54.674Z" fill="#CC9281" style="mix-blend-mode:multiply" opacity=".44"/><path d="M190.372 283.153c0 .387.258 7.156.595 16.14-3.75.248-7.352.328-10.784.288l-2.441-18.167 12.63 1.739Z" fill="#CC9281" style="mix-blend-mode:multiply" opacity=".44"/><path d="M244.718 346.256h-6.489l-20.02-51.394-4.236-10.844 5.635-.626 7.044-.795c.069.269 1.061 3.777 2.549 9.025l15.517 54.634Z" fill="#864FF1"/><path d="M240.144 346.256h-1.915l-20.02-51.394-4.236-10.843 5.635-.626c3.571 11.211 16.27 49.793 20.536 62.863Z" fill="#CC9281" style="mix-blend-mode:multiply" opacity=".44"/><path d="M229.201 291.612a166.026 166.026 0 0 1-10.992 3.25l-4.236-10.843 12.679-1.421c.069.258 1.061 3.766 2.549 9.014Z" fill="#CC9281" style="mix-blend-mode:multiply" opacity=".44"/><path d="M245.632 230.219a80.282 80.282 0 0 1-1.984 9.333c-3.135 11.221-4.643 22.382-16.866 29.737-2.351 1.411-5.417 2.415-7.798 3.757a65.731 65.731 0 0 1-14.941 5.963c-15.556 4.274-33.017 6.132-48.712 1.58a31.73 31.73 0 0 1-12.352-6.957 51.689 51.689 0 0 1-11.905-16.786c-1.3-2.813-2.431-5.695-3.453-8.627a154.779 154.779 0 0 1-2.331-7.365c-.724-2.475-1.379-4.84-2.054-7.265-2.976-10.933-5.952-22.124-5.506-33.474a50.886 50.886 0 0 1 7.92-25.404 50.76 50.76 0 0 1 19.651-17.91c7.321-3.727 15.536-5.556 23.632-6.58 8.819-1.113 17.857-1.848 26.786-1.113a52.318 52.318 0 0 1 17.481 4.642 56.956 56.956 0 0 1 19.703 15.087c8.661 10.326 12.163 25.165 13.374 38.324a94.907 94.907 0 0 1-.645 23.058Z" fill="#EE4439"/><path d="M245.632 230.219a80.079 80.079 0 0 1-1.985 9.333c-3.135 11.221-3.045 21.05-12.074 28.405-2.133 1.739-10.218 3.747-12.599 5.089l-76.005.606a51.682 51.682 0 0 1-11.905-16.787c-1.3-2.813-2.431-5.695-3.453-8.627l.814-6.311s10.715 9.293 56.817 6.46c46.103-2.832 56.947-17.234 58.435-19.361.437-.666 1.131-.01 1.955 1.193Z" fill="#FF6551" style="mix-blend-mode:multiply" opacity=".36"/><path d="M234.818 259.549c-.318.497-.635.993-.992 1.461a43.52 43.52 0 0 1-7.114 8.278 46.93 46.93 0 0 1-12.044 7.355c-15.476 6.907-32.61 9.094-49.287 7.364a50.632 50.632 0 0 1-9.802-1.818 36.057 36.057 0 0 1-19.902-15.982 34.517 34.517 0 0 1-1.458-2.762 45.212 45.212 0 0 1-.605-1.382c-.208-.527 12.471-5.158 50.756-5.019 36.707.129 46.698-.288 50.061 2.167.135.105.265.218.387.338Z" fill="#EE4439"/><path d="M234.421 259.171a6.548 6.548 0 0 0-.565.646c-2.084 2.684-11.37 11.926-47.234 13.795-35.865 1.868-48.613-7.832-49.01-7.057l-.377.756-3.026-3.906c-.208-.447-.406-.914-.605-1.381-.208-.527 12.471-5.159 50.756-5.019 36.708.178 46.698-.249 50.061 2.166Z" fill="#E02D28"/><path d="M117.284 267.352s-11.638-21.101-3.433-29.936c8.205-8.836 13.701-2.982 17.183 9.114 3.482 12.095 20.775 37.28 52.651 35.71 39.356-1.938 51.996-18.397 57.809-37.589 5.814-19.192 7.054-22.571 14.187-22.571 7.134 0 12.759 22.641-9.454 48.76s-69.388 25.642-83.833 23.009c-14.445-2.634-33.126-7.166-45.11-26.497Z" fill="#FF6551"/><path d="M187.385 259.994a9.379 9.379 0 0 1-1.468 1.988 9.773 9.773 0 0 1-.863.815c-3.056 2.574-7.669 3.846-13.265 7.951a4.27 4.27 0 0 0-1.567 2.326 7.52 7.52 0 0 0-.278 2.067c0 5.884 5.05 15.147 8.403 20.613a102.7 102.7 0 0 0 2.877 4.453s-1.984-1.203-4.96-3.171a167.157 167.157 0 0 1-20.606-15.763c-4.961-4.671-8.691-9.372-8.701-13 0-7.315 8.482-12.92 14.207-15.902a50.883 50.883 0 0 1 5.079-2.296h12.898l8.78 2.246 1.22.318s.933 2.495-1.756 7.355Z" fill="#2435A1"/><path d="M184.826 261.992s8.612 35.322 13.552 40.491c4.941 5.168 11.062-38.404 9.445-45.441-.952-4.154-22.997 4.95-22.997 4.95Z" fill="#3DA6C0"/><path d="M196.95 283.777c-5.08-.178-10.814-17.482-11.906-20.98a26.948 26.948 0 0 1-.228-.805 26.102 26.102 0 0 1-.288-9.362s1.37-.109 3.413-.229c5.348-.298 15.368-.596 17.977 1.153a4.74 4.74 0 0 1 1.578 2.107c1.984 4.632-3.503 28.375-10.546 28.116Z" fill="#2435A1"/><path d="M194.658 240.235c-51.639 6.163-65.955-16.766-70.717-32.679-2.431-8.129-.992-14.977.823-22.064 1.707-6.798 3.691-13.805 2.778-22.372-.327-3.031-.684-6.619-.813-10.466-.645-18.367 3.77-42.429 40.983-37.628 0 0 5.645-8.707 21.826-8.09 14.991.566 29.763 12.324 35.557 32.47.457 1.6.863 3.26 1.211 4.969 3.274 16.29 8.809 21.279 13.81 29.151a50.975 50.975 0 0 1 5.833 12.573c5.744 18.237.357 47.964-51.291 54.136Z" fill="#672410"/><path d="M194.658 240.236c-51.639 6.162-65.955-16.767-70.717-32.679-2.431-8.13-.992-14.978.823-22.064.655 5.158 3.611 16.111 16.866 18.724 17.501 3.449 17.441-15.186 41.847-18.257 24.405-3.071 27.024 1.083 42.253 1.431 9.266.209 12.897-7.673 14.386-13.914a50.951 50.951 0 0 1 5.833 12.572c5.744 18.288.357 48.015-51.291 54.187Z" fill="#772F1E" style="mix-blend-mode:multiply" opacity=".28"/><path d="M151.195 232.174c-.849.116-1.703.182-2.56.199a20.199 20.199 0 0 1-2.331-.179 15.836 15.836 0 0 1-4.514-1.302 12.949 12.949 0 0 1-5.655-4.711 12.838 12.838 0 0 1-1.766-7.006 50.65 50.65 0 0 1 .932-7.534c.574-2.472.695-5.028.358-7.543-.08-.417.575-.596.704-.209a18.121 18.121 0 0 1 .843 7.603c-.357 4.353-1.756 9.502.923 13.407a11.31 11.31 0 0 0 5.268 4.075c1.22.47 2.478.832 3.76 1.084.714.149 1.439.258 2.163.377.724.119 1.22.298 1.855.388.635.089.794 1.282.02 1.351Zm83.157-47.775a28.133 28.133 0 0 1-2.599 12.225 46.086 46.086 0 0 1-5.278 8.875 46.694 46.694 0 0 1-3.284 3.837 26.086 26.086 0 0 1-1.985 1.878 7.206 7.206 0 0 1-1.984 1.391.617.617 0 0 1-.714-.193.623.623 0 0 1-.03-.741 14.805 14.805 0 0 1 1.925-2.176c.655-.736 1.329-1.442 1.984-2.177a53.181 53.181 0 0 0 3.482-4.393c3.542-4.969 6.439-11.002 6.727-17.224v-1.491a17.916 17.916 0 0 0-2.867-9.65c-1.588-2.346-4.187-4.841-3.364-7.952.07-.268.427-.119.427.11 0 2.117 1.369 3.717 2.649 5.257a21.646 21.646 0 0 1 3.145 4.741 19.74 19.74 0 0 1 1.766 7.683Z" fill="#772F1E"/><path d="M225.721 187.391a11.834 11.834 0 0 1-2.063 6.897 32.526 32.526 0 0 1-4.693 5.02 18.014 18.014 0 0 0-4.147 5.247 11.694 11.694 0 0 0-.645 7.743c.1.407-.476.487-.644.189a9.957 9.957 0 0 1-.625-8.429c1.646-4.403 6.022-6.818 8.819-10.376a10.936 10.936 0 0 0 2.361-6.341v-.447a22.198 22.198 0 0 0-.377-3.976c-.218-1.341-.426-2.713-.734-3.975-.089-.358.486-.517.606-.179a43.643 43.643 0 0 1 1.517 4.274c.383 1.42.592 2.882.625 4.353Z" fill="#772F1E"/><path d="M219.581 185.392a11.896 11.896 0 0 1-.277 1.591 12.864 12.864 0 0 1-2.699 5.078c-1.835 2.207-4.117 3.976-6.022 6.112-1.657 1.879-3.165 4.175-3.254 6.769a7.055 7.055 0 0 0 2.679 5.595c.347.278.148.994-.348.875a5.791 5.791 0 0 1-2.837-1.92 5.81 5.81 0 0 1-1.26-3.189 10.553 10.553 0 0 1 2.123-7.364c1.726-2.475 4.127-4.373 6.31-6.421a18.869 18.869 0 0 0 4.464-5.625 8.133 8.133 0 0 0 .546-1.57.288.288 0 0 1 .322-.254.29.29 0 0 1 .253.323Zm-16.062 14.164c-3.632 2.892-2.977 8.478-.327 11.797.278.348-.199.845-.546.567a8.931 8.931 0 0 1-2.649-3.141 7.436 7.436 0 0 1-.695-3.975 7.672 7.672 0 0 1 3.83-5.964c.387-.119.715.497.387.716Zm40.407-2.057a20.612 20.612 0 0 1-2.917 13.526 39.186 39.186 0 0 1-4.425 6.112 62.344 62.344 0 0 1-2.668 2.912 6.242 6.242 0 0 1-2.977 2.167.66.66 0 0 1-.555-.182.666.666 0 0 1-.189-.554 6.11 6.11 0 0 1 1.984-2.922 81.972 81.972 0 0 0 2.411-2.564 46.448 46.448 0 0 0 4.425-5.615c2.421-3.717 4.256-8.249 4.107-12.761-.03-.517.695-.656.804-.119Z" fill="#772F1E"/><path d="M151.195 232.174c-.849.116-1.703.182-2.56.199a20.199 20.199 0 0 1-2.331-.179 15.836 15.836 0 0 1-4.514-1.302 12.949 12.949 0 0 1-5.655-4.711 12.838 12.838 0 0 1-1.766-7.006 50.65 50.65 0 0 1 .932-7.534c.574-2.472.695-5.028.358-7.543-.08-.417.575-.596.704-.209a18.121 18.121 0 0 1 .843 7.603c-.357 4.353-1.756 9.502.923 13.407a11.31 11.31 0 0 0 5.268 4.075c1.22.47 2.478.832 3.76 1.084.714.149 1.439.258 2.163.377.724.119 1.22.298 1.855.388.635.089.794 1.282.02 1.351Zm52.324-32.618c-3.632 2.892-2.977 8.478-.327 11.797.278.348-.199.845-.546.567a8.931 8.931 0 0 1-2.649-3.141 7.436 7.436 0 0 1-.695-3.975 7.672 7.672 0 0 1 3.83-5.964c.387-.119.715.497.387.716Zm13.086-7.494c-1.835 2.206-4.117 3.975-6.022 6.112-1.657 1.878-3.165 4.174-3.254 6.768a7.052 7.052 0 0 0 2.679 5.595c.347.279.148.994-.348.875a5.81 5.81 0 0 1-4.097-5.108 10.556 10.556 0 0 1 2.123-7.365c1.726-2.475 4.127-4.373 6.31-6.42a18.881 18.881 0 0 0 4.464-5.625l.844.089a12.868 12.868 0 0 1-2.699 5.079Z" fill="#772F1E" style="mix-blend-mode:multiply" opacity=".28"/><path d="M219.014 199.306a17.989 17.989 0 0 0-4.147 5.248 11.69 11.69 0 0 0-.645 7.742c.099.408-.476.487-.645.189a9.956 9.956 0 0 1-.625-8.428c1.647-4.403 6.022-6.818 8.82-10.376a10.936 10.936 0 0 0 2.361-6.341h1.637a11.847 11.847 0 0 1-2.063 6.898 32.618 32.618 0 0 1-4.693 5.068Zm12.739-2.682a46.116 46.116 0 0 1-5.278 8.875 46.68 46.68 0 0 1-3.284 3.836 25.902 25.902 0 0 1-1.985 1.879 7.227 7.227 0 0 1-1.984 1.391.624.624 0 0 1-.744-.934 14.864 14.864 0 0 1 1.925-2.177c.655-.735 1.329-1.441 1.984-2.176a53.35 53.35 0 0 0 3.482-4.393c3.542-4.969 6.439-11.002 6.727-17.224a12.851 12.851 0 0 0 1.776-1.302 28.125 28.125 0 0 1-2.619 12.225Zm12.173.875a20.612 20.612 0 0 1-2.917 13.526 39.186 39.186 0 0 1-4.425 6.112 62.344 62.344 0 0 1-2.668 2.912 6.242 6.242 0 0 1-2.977 2.167.66.66 0 0 1-.555-.182.666.666 0 0 1-.189-.554 6.11 6.11 0 0 1 1.984-2.922 81.972 81.972 0 0 0 2.411-2.564 46.448 46.448 0 0 0 4.425-5.615c2.421-3.717 4.256-8.249 4.107-12.761-.03-.517.695-.656.804-.119Z" fill="#772F1E" style="mix-blend-mode:multiply" opacity=".28"/><path d="M224.152 227.582c0 1.243-1.101 2.207-2.242 2.694-2.857 1.222-6.111.725-9.197.517-10.476-.696-20.834 2.116-31.34 2.603-1.984.09-3.968.1-5.953.11l-27.044.109a4.29 4.29 0 0 1-2.977-.725c-.783-.696-.704-2.296.318-2.515l-1.508-1.242c5.437-7.444 15.626-11.708 23.632-16.25 1.518-.854 3.026-1.719 4.593-2.455l.685-.318c.496-.228.992-.437 1.508-.626a39.007 39.007 0 0 1 20.635-1.649c1.31.218 2.6.496 3.88.824.555.14 1.101.289 1.646.448 9.336 2.723 18.245 8.318 22.819 16.895a3.49 3.49 0 0 1 .545 1.58Z" fill="#FFC652"/><path d="M195.202 207.835c-.188.467-3.512 4.551-10.516 4.83-6.29.248-9.266-1.988-10.12-3.181a39.011 39.011 0 0 1 20.636-1.649Z" fill="#F7A845" style="mix-blend-mode:multiply"/><path d="M191.998 207.666s-1.369 2.981-7.272 3.051c-5.903.069-7.52-1.879-7.52-1.879l-.328-2.196-.466-3.151 13.572-3.14 1.27-.298.079.815.417 4.214.248 2.584Z" fill="#EA9573"/><path d="M207.505 255.66c-3.681 2.575-9.733 5.397-19.148 6.192-.833.07-1.647.119-2.44.129h-1.092a34.686 34.686 0 0 1-23.651-9.541 50.548 50.548 0 0 1 5.079-2.295h12.898l8.78 2.246c5.347-.299 15.367-.597 17.977 1.153a4.73 4.73 0 0 1 1.597 2.116Z" fill="#2D7F75" style="mix-blend-mode:multiply" opacity=".36"/><path d="M209.44 229.59c-.506 3.886-1.161 7.753-1.707 11.629l-.119.805c-.198 1.441-.317 2.902-.416 4.353-.189 2.713-.298 5.436-.645 8.129-.089.696-2.51 1.064-2.976 1.183a68.61 68.61 0 0 1-6.786 1.312c-5.04.745-10.12 1.481-15.239 1.083a28.618 28.618 0 0 1-9.167-2.176 25.524 25.524 0 0 1-4.207-2.395c-.992-.696-2.549-1.69-2.827-2.982-.109-.517-.367-3.131-.486-3.737-.347-1.63-.734-3.548-1.141-5.565-.992-4.811-1.984-10.178-2.699-13.527l48.415 1.888Z" fill="#FFC652"/><path d="m188.416 228.209-5.794.159a50.02 50.02 0 0 0-5.853.388 25.47 25.47 0 0 0-5.953 1.59.994.994 0 0 0-.595.467.812.812 0 0 0 .298.815 4.314 4.314 0 0 0 2.5.994c2.311.261 4.647.211 6.945-.149 3.462-.418 6.944-.994 10.357-1.591l-1.905-2.673Z" fill="#EA9573"/><path d="M172.296 229.262a63.182 63.182 0 0 1 2.322-4.889 3.806 3.806 0 0 1 1.131-1.481 3.28 3.28 0 0 1 1.518-.477 11.785 11.785 0 0 1 3.968.179c.992.198 1.984.666 2.272 1.61a1.995 1.995 0 0 1-.407 1.649 5.417 5.417 0 0 1-1.309 1.163 2.152 2.152 0 0 1 2.918 2.468 2.15 2.15 0 0 1-.845 1.279c.814-.099 1.836.298 1.885 1.123a1.286 1.286 0 0 1-.635 1.113 3.32 3.32 0 0 1-1.27.438c-3.938.762-8.01.418-11.766-.994l.218-3.181Z" fill="#FFBF94"/><path d="M222.477 223.995c-8.879-6.37-27.947.507-36.063 4.214-.208 2.366 1.985 4.97 2.223 5.407 0 0 20.298-.338 27.491-.557 7.192-.218 13.026-4.263 6.349-9.064Zm-78.755 5.595c.118-.292.264-.571.437-.834a12.79 12.79 0 0 1 6.28-4.115c10.913-1.938 19.425-.348 23.285 1.491.466.218.545 5.565.664 6.46a.737.737 0 0 1-.783.994 128.793 128.793 0 0 1-25.368.536 7.786 7.786 0 0 1-3.661-.904 2.77 2.77 0 0 1-.854-3.628Z" fill="#FFC652"/><path d="M191.75 205.081c-1.667 1.501-3.839 3.061-5.952 3.29-4.167.447-8.8-1.68-8.929-1.729l-.467-3.151 13.572-3.14 1.35.516.426 4.214Z" fill="#DD7258" style="mix-blend-mode:multiply" opacity=".31"/><path d="M148.395 225.506a20.17 20.17 0 0 0 2.53-.547 26.195 26.195 0 0 1 2.927-.348c1.984-.159 3.968-.338 5.953-.367 1.965-.032 3.93.061 5.883.278.992.119 2.034.248 3.046.437.928.302 1.892.486 2.867.547a.15.15 0 0 0 .069-.279 7.921 7.921 0 0 0-2.758-.914 34.505 34.505 0 0 0-3.105-.676 31.956 31.956 0 0 0-6.161-.457 53.95 53.95 0 0 0-5.953.537 21.861 21.861 0 0 0-2.976.606 5.306 5.306 0 0 0-2.381 1.103v.08h.059Zm38.971 2.385a26.977 26.977 0 0 0 4.147-1.411c1.28-.477 2.55-.994 3.829-1.451a62.827 62.827 0 0 1 8.046-2.395 41.792 41.792 0 0 1 7.689-.925 37.45 37.45 0 0 1 3.82.06c1.318.043 2.63.206 3.918.487a19.868 19.868 0 0 0-3.7-1.133 23.265 23.265 0 0 0-3.899-.328c-2.59.022-5.17.316-7.699.875a52.494 52.494 0 0 0-8.085 2.613c-1.29.507-2.58.994-3.86 1.591a31.232 31.232 0 0 0-4.246 1.987v.06l.04-.03Z" fill="#F7A845"/><path d="m207.732 241.219-.119.805c-.198 1.441-.317 2.902-.416 4.353l-6.667 1.988a61.925 61.925 0 0 1-31.113-.348l-4.563-1.242c-.347-1.63-.734-3.548-1.141-5.566l44.019.01Z" fill="#FFC652" style="mix-blend-mode:multiply"/><path d="M213.389 161.868s5.089-3.38 8.71 0c3.621 3.379.209 13.914-3.353 15.454-3.562 1.54-5.149.745-5.149.745l-.208-16.199Zm-68.505 9.919s-5.834-1.779-8.334 2.524c-2.5 4.304 3.75 13.437 7.58 13.914 3.83.477 5.149-.745 5.149-.745l-4.395-15.693Z" fill="#FFBF94"/><path d="M213.836 146.8s1.081 14.56 1.18 26.387v5.129c-.109 4.761-.486 8.428-1.299 9.452-2.927 3.617-20.715 16.826-28.345 17.422-7.629.597-28.959-6.082-32.67-9.074-1.19-.994-2.867-4.701-4.593-9.352-3.671-9.869-7.59-23.853-7.59-23.853-2.569-23.536 9.306-33.335 34.436-37.818 25.13-4.482 38.881 21.707 38.881 21.707Z" fill="#FFBF94"/><path d="M140.082 157.703c-.863-2.485.675-5.158 2.292-7.375a70.487 70.487 0 0 1 21.023-18.834c6.677-3.975 14.474-6.887 22.223-6.013a45.995 45.995 0 0 1 10.675 2.982 23.07 23.07 0 0 1 4.613 2.087 18.363 18.363 0 0 1 3.324 2.982 67.029 67.029 0 0 1 10.555 15.107 7.695 7.695 0 0 1 1.131 3.786 6.864 6.864 0 0 1-1.369 3.4 18.706 18.706 0 0 1-5.883 5.535l-4.593-10.932a8.603 8.603 0 0 1-6.439 4.383 19.74 19.74 0 0 0-6.488-8.438c-1.379 3.27-4.485 5.734-7.848 7.394a28.91 28.91 0 0 0-4.186-9.939l-1.876 9.939a10.096 10.096 0 0 1-7.936-3.846 11.074 11.074 0 0 0-1.558 8.855 11.359 11.359 0 0 1-6.446-.059 11.389 11.389 0 0 1-5.38-3.558c-.297 3.591-.602 7.172-.912 10.744a12.288 12.288 0 0 1-8.384-3.608 14.271 14.271 0 0 0 .486 8.348s-2.351-.208-3.075-1.759c-.724-1.55-3.949-11.181-3.949-11.181Z" fill="#DA8966" style="mix-blend-mode:multiply" opacity=".28"/><path d="M183.158 129.895a19.999 19.999 0 0 0-7.252 9.777 20.04 20.04 0 0 0-.248 12.178s-6.111-1.412-7.322-7.494c0 0-5.496 6.232-3.303 13.477 0 0-8.116-1.62-8.542-11.43 0 0-5.953 6.461-1.856 17.89 0 0-6.944-3.439-7.877-9.054 0 0-3.333 9.859.357 17.214a9.398 9.398 0 0 1-5.059-1.491c-2.52-1.67-4.842-5.208-6.479-12.463-3.194-14.173 12.282-34.339 35.597-36.565 23.314-2.227 42.094 10.674 45.924 22.452a22.336 22.336 0 0 1-3.224 20.285c1.607-2.644-5.953-38.086-30.716-34.776Z" fill="#672410"/><path d="M177.783 131.335s6.25 9.124 7.252 19.51c0 0 5.953-6.301 6.161-9.611 0 0 7.024 4.244 8.691 12.384 0 0 4.306-4.234 3.225-8.359 0 0 6.349 4.184 7.282 15.226 0 0 4.385-3.439 3.869-8.865 0 0-7.977-32.141-36.48-20.285Z" fill="#672410"/><path d="M192.228 159.035c.347.387.823.278 1.299.258.476-.02 1.092-.109 1.647-.169a8.871 8.871 0 0 1 3.195.119c.953.288 1.872.681 2.738 1.173.421.248.859.468 1.309.656.252.109.515.189.784.239h.754c.248 0 .437-.308.298-.517-.139-.209-.169-.537-.327-.765a4.427 4.427 0 0 0-.655-.706 8.406 8.406 0 0 0-1.469-.994 10.259 10.259 0 0 0-3.442-1.232 9.103 9.103 0 0 0-3.8.268c-.387.099-2.976.885-2.331 1.68v-.01Zm-31.054 5.238c-.863-.686-2.301-.179-3.244.099-1.071.327-2.09.806-3.026 1.422a13.038 13.038 0 0 0-2.47 2.087c-.635.676-1.677 1.898-1.23 2.892a.713.713 0 0 0 .724.407c.893 0 1.607-1.242 2.183-1.808a11.409 11.409 0 0 1 2.142-1.72c.764-.451 1.568-.83 2.401-1.133.864-.328 2.084-.348 2.679-1.103a.823.823 0 0 0-.159-1.143Z" fill="#5F130F"/><path d="M146.322 184.071a9.373 9.373 0 0 1-5.268-4.294c-.456-.904-.595-2.445.645-2.792.992-.289 1.647.994 2.213 1.63.297.328.922 0 .694-.418-.605-1.183-1.23-2.683-2.808-2.643a2.863 2.863 0 0 0-2.559 3.09c.059 1.819 1.379 3.34 2.599 4.562 1.22 1.223 2.699 2.236 4.494 1.59a.393.393 0 0 0 .23-.366.395.395 0 0 0-.24-.359Zm74.925-17.452c-.288-1.342-1.578-2.385-2.918-1.61-.903.517-2.173 2.604-.992 3.409a.262.262 0 0 0 .103.044.244.244 0 0 0 .21-.061.247.247 0 0 0 .064-.092c.427-.776.328-1.928 1.31-2.336 1.34-.566 1.221 1.859 1.171 2.564a6.153 6.153 0 0 1-.685 2.475 5.702 5.702 0 0 1-1.984 1.729.295.295 0 0 0 0 .467c1.29 1.064 2.669-.815 3.145-1.888.65-1.476.85-3.111.576-4.701Z" fill="#DA8966" style="mix-blend-mode:multiply" opacity=".44"/><path d="M192.316 188.135a14.458 14.458 0 0 1-1.925 5.785 9.54 9.54 0 0 1-6.835 4.482 9.209 9.209 0 0 1-8.572-2.842 15.885 15.885 0 0 1-2.976-4.672 1.045 1.045 0 0 1 0-.735 1.1 1.1 0 0 1 1.24-.785l.377.059a27.914 27.914 0 0 0 17.024-2.514.987.987 0 0 1 .367-.109 1.2 1.2 0 0 1 1.359 1.331h-.059Z" fill="#831532"/><path d="M192.227 187.45a18.091 18.091 0 0 1-9.623 4.88 17.729 17.729 0 0 1-10.625-2.177 1.1 1.1 0 0 1 1.24-.785l.377.059a27.914 27.914 0 0 0 17.024-2.514.987.987 0 0 1 .367-.109 1.21 1.21 0 0 1 1.24.646Z" fill="#fff"/><path d="M190.392 193.92a9.567 9.567 0 0 1-6.836 4.482 9.205 9.205 0 0 1-8.572-2.842 28.3 28.3 0 0 1 15.408-1.64Z" fill="#FF6551"/><path d="M166.741 188.476c.154-1.7-2.291-3.312-5.461-3.601-3.17-.289-5.865.855-6.02 2.555-.154 1.7 2.291 3.312 5.461 3.601 3.17.289 5.865-.855 6.02-2.555Zm36.946-3.629c3.054-.897 5.143-2.952 4.664-4.59-.48-1.638-3.345-2.239-6.4-1.343-3.054.897-5.143 2.952-4.664 4.59.48 1.638 3.345 2.24 6.4 1.343Z" fill="#F2786B"/><path d="m214.797 168.328.218 4.91v5.079c-.109 4.76-.486 8.428-1.3 9.452-2.927 3.617-20.715 16.826-28.344 17.422-7.629.597-28.96-6.082-32.67-9.074-1.191-.994-2.867-4.701-4.593-9.352-1.727-4.652-3.503-10.208-3.503-10.208.854 2.982 4.961 12.871 8.79 17.821 2.56 3.339 25.011 8.766 32.482 8.03 7.47-.735 17.421-9.451 22.818-13.377 5.397-3.926 6.072-20.285 6.102-20.703Z" fill="#DA8966" style="mix-blend-mode:multiply" opacity=".21"/><path d="M225.075 139.406c-21.172-23.396-41.807-20.931-51.074-18.089a56.7 56.7 0 0 1-11.647 2.296c-24.336 2.206-32.739 17.731-35.636 29.041-.645-18.367 3.77-42.429 40.984-37.618 0 0 5.635-8.717 21.826-8.101 14.981.567 29.743 12.325 35.547 32.471Z" fill="#772F1E" style="mix-blend-mode:screen" opacity=".27"/><path d="M180.481 181.089a6.626 6.626 0 0 0-2.848 1.213.583.583 0 0 0-.158.159c-.149.268.178.536.466.636a8.003 8.003 0 0 0 5.496-.487 2.408 2.408 0 0 0 1.131-.716c.169-.228.238-.596 0-.755a.664.664 0 0 0-.337-.089 12.513 12.513 0 0 0-5.129.755l1.379-.716Z" fill="#DA8966" style="mix-blend-mode:multiply" opacity=".21"/><path d="M177.594 182.66c.436-.239.763-.606 1.23-.825a5.937 5.937 0 0 1 1.696-.447 10.238 10.238 0 0 1 1.667-.149 2.975 2.975 0 0 1 1.587.516c.526.328 1.211-.268.784-.805-.932-1.172-2.817-.904-4.107-.695-1.092.179-3.234.616-3.344 2.047 0 .239.239.497.487.358Z" fill="#D88261"/><path d="M186.81 162.116c-.466-4.711-6.21-4.85-9.713-3.886-2.073.566-5.496.934-7.133 2.295a4.625 4.625 0 0 0-1.19 5.506 9.743 9.743 0 0 0 1.815 2.276 52.708 52.708 0 0 1 5.358 6.609c.714.994 1.517 2.207 2.758 2.445a3.236 3.236 0 0 0 2.45-.685 8.267 8.267 0 0 0 2.768-4.363c.526-1.67.804-3.419 1.429-5.059.625-1.64 1.637-3.34 1.458-5.138Z" fill="#F8A37A" style="mix-blend-mode:screen" opacity=".11"/><path d="M198.377 302.482c-4.722-4.969-12.788-37.419-13.502-40.292l.179.607c1.081 3.498 6.825 20.802 11.905 20.98 6.498.239 11.677-19.977 10.913-26.735 1.567 7.037-4.564 50.619-9.495 45.44Z" fill="#2435A1"/><path d="M204.133 309.518c-.832 2.01-1.1 4.21-.774 6.361.265 1.074.44 2.167.526 3.27a3.137 3.137 0 0 1-.992 2.395 4.073 4.073 0 0 1-1.756.705c-1.425.3-2.883.407-4.336.318a3.727 3.727 0 0 1-1.646-.377 2.158 2.158 0 0 1-.993-1.242 3.581 3.581 0 0 1-.139-1.74 17.993 17.993 0 0 1 1.181-3.279c.893-2.386 1.865-10.684-.178-15.902a25.79 25.79 0 0 1-2.421-8.249.507.507 0 0 1 .049-.318.568.568 0 0 1 .814-.229 10.903 10.903 0 0 0 10.615.547.39.39 0 0 1 .369.015.394.394 0 0 1 .197.313 7.8 7.8 0 0 1-.566 2.862 36.569 36.569 0 0 0-1.279 5.536 13.824 13.824 0 0 1 1.726 2.306c.573.866.915 1.865.992 2.902a10.257 10.257 0 0 1-1.389 3.806Z" fill="#FFDF5F"/><path d="M204.133 309.519a11.94 11.94 0 0 0-.774 6.361c.264 1.073.44 2.167.526 3.269a3.141 3.141 0 0 1-.992 2.396 4.085 4.085 0 0 1-1.756.705c-1.425.3-2.883.407-4.336.318a3.76 3.76 0 0 1-1.647-.377 2.162 2.162 0 0 1-.992-1.243 13.362 13.362 0 0 0 4.405-.994 7.3 7.3 0 0 0 3.264-4.353c.481-1.798.812-3.633.992-5.486a39.419 39.419 0 0 1 1.746-7.324c.573.866.915 1.865.992 2.902a10.275 10.275 0 0 1-1.428 3.826Z" fill="#F7BF30"/><path d="M178.516 297.085h-2.242a167.247 167.247 0 0 1-20.606-15.762 8.855 8.855 0 0 0 6.746.675c5.229-1.52 6.945-4.701 7.53-6.808 0 5.884 5.05 15.147 8.403 20.613.1.795.169 1.282.169 1.282Z" fill="#243976" style="mix-blend-mode:multiply" opacity=".36"/><path d="M180.769 302.323a9.548 9.548 0 0 1-4.038 1.988c-1.578.348-3.244.089-4.762.725-3.443 1.451-5.169 6.152-9.554 5.258a2.552 2.552 0 0 1-.367-.09c-1.379-.357-6.796-6.321 2.52-8.944 2.073-.597 5.099-.994 6.617-2.714.373-.35.597-.83.625-1.341a2.687 2.687 0 0 0-.823-1.64c-1.548-1.839-7.739-5.576-5.388-5.963.715-.12 5.606-2.316 6.608-3.777a.991.991 0 0 1 1.091-.487c.147.079.272.191.367.328a37.512 37.512 0 0 1 2.6 3.727c.545.865 1.071 1.749 1.597 2.624.774 1.282 1.557 2.604 2.44 3.816.883 1.213 1.866 2.077 1.985 3.479a3.77 3.77 0 0 1-1.518 3.011Z" fill="#FFDF5F"/><path d="M180.768 302.323a9.536 9.536 0 0 1-4.038 1.988c-1.577.348-3.244.089-4.762.725-3.443 1.451-5.169 6.152-9.554 5.258a14.231 14.231 0 0 1 3.986-5.19 14.18 14.18 0 0 1 5.885-2.85 14.81 14.81 0 0 0 3.483-.855 4.969 4.969 0 0 0 2.748-4.294c0-2.693-2.133-5.207-2.252-7.742.545.865 1.071 1.749 1.597 2.624.774 1.282 1.558 2.604 2.441 3.816.883 1.213 1.865 2.078 1.984 3.479a3.762 3.762 0 0 1-1.518 3.041Z" fill="#F7BF30"/><g style="mix-blend-mode:screen" opacity=".27" fill="#772F1E"><path d="M169.309 118.843c-2.47 1.182-4.335 3.767-5.893 5.963a43.206 43.206 0 0 0-4.236 7.236c-2.213 4.919-3.244 10.495-1.727 15.773.744 2.613 2.074 5.724 4.753 6.837a.236.236 0 0 0 .324-.179.237.237 0 0 0-.017-.139c-.833-2.206-2.192-4.164-2.827-6.47a19.184 19.184 0 0 1-.576-7.046c.536-5.099 2.788-9.77 5.516-14.044a45.025 45.025 0 0 1 2.53-3.588c.903-1.163 1.984-2.216 2.857-3.429a.599.599 0 0 0-.32-.943.59.59 0 0 0-.384.029Z" style="mix-blend-mode:screen" opacity=".27"/><path d="M171.115 125.511c.347-.636-.615-1.351-1.131-.855-3.185 3.062-3.829 8.071-3.234 12.255a22.655 22.655 0 0 0 2.242 7.016c.992 2.038 2.292 4.592 4.316 5.814.089.05.258 0 .218-.139-.526-2.146-2.044-4.045-2.976-6.052a23.16 23.16 0 0 1-1.985-6.52 16.935 16.935 0 0 1 .248-5.963 22.548 22.548 0 0 1 2.302-5.556Zm-6.362-6.46c-2.758.934-5.129 2.982-7.232 4.9a47.974 47.974 0 0 0-5.873 6.51c-3.612 4.85-6.727 10.346-6.469 16.578a16.117 16.117 0 0 0 3.472 9.173.45.45 0 0 0 .272.153.453.453 0 0 0 .504-.298.458.458 0 0 0-.002-.312 19.838 19.838 0 0 1-.625-16.28 45.12 45.12 0 0 1 9.524-13.646c2.163-2.206 4.703-4.055 6.737-6.39.178-.199-.09-.448-.308-.388Z" style="mix-blend-mode:screen" opacity=".27"/><path d="M164.943 116.715c-3.68.109-7.341 2.177-10.327 4.194a35.628 35.628 0 0 0-8.086 7.554c-5.258 6.689-7.391 15.067-8.264 23.416a35.105 35.105 0 0 0-.07 7.702c.142 1.303.415 2.589.814 3.837.198.597.44 1.178.724 1.739.327.56.696 1.095 1.101 1.6.338.507.992 0 .834-.507-.159-.506-.199-1.212-.348-1.828-.119-.467-.218-.935-.317-1.402-.218-1.053-.427-2.097-.566-3.15a33.147 33.147 0 0 1-.129-6.5 61.538 61.538 0 0 1 2.391-13.139 33.436 33.436 0 0 1 12.035-17.026 34.757 34.757 0 0 1 4.96-3.111c1.796-.914 3.671-1.62 5.417-2.623a.39.39 0 0 0 .111-.695.39.39 0 0 0-.28-.061Z" style="mix-blend-mode:screen" opacity=".27"/><path d="M159.487 116.158c-.869.065-1.731.194-2.58.388-.853.228-1.706.467-2.55.745a53.222 53.222 0 0 0-5.069 1.909 30.513 30.513 0 0 0-8.83 5.635c-4.703 4.393-7.441 10.436-8.671 16.687a41.857 41.857 0 0 0-.724 9.512c.119 3.816.932 7.593.992 11.409a30.633 30.633 0 0 1-2.123 11.062c-1.22 3.3-2.659 6.63-2.917 10.178-.476 6.689 3.74 13.715 10.467 15.256.198.05.337-.278.149-.378-4.872-2.793-8.751-8.1-8.671-13.914.049-3.369 1.349-6.54 2.559-9.621a38.465 38.465 0 0 0 2.748-10.217c.387-3.836-.208-7.564-.565-11.37a43.712 43.712 0 0 1 .079-9.184 31.731 31.731 0 0 1 6.538-16.379 28.33 28.33 0 0 1 8.572-6.907 39.83 39.83 0 0 1 5.318-2.396 73.467 73.467 0 0 1 2.619-.914c.883-.288 1.865-.745 2.807-1.143a.21.21 0 0 0-.148-.358Z" style="mix-blend-mode:screen" opacity=".27"/><path d="M145.866 218.667c-.794.279-1.508-.745-.784-1.302a10.927 10.927 0 0 0 3.968-6.132 10.683 10.683 0 0 0-.833-6.798 16.51 16.51 0 0 0-4.911-6.022c-4.058-3.161-10.288-4.97-10.705-11.002a.183.183 0 0 1 .154-.204.18.18 0 0 1 .203.154c.874 3.359 4.405 5.347 7.233 6.867a27.361 27.361 0 0 1 7.074 4.97 15.75 15.75 0 0 1 3.164 4.691c.338.77.61 1.568.814 2.385 1.161 4.572-.556 10.743-5.377 12.393Z" style="mix-blend-mode:screen" opacity=".27"/><path d="M159.536 208.361c.328 2.544-.337 5.804-3.294 6.351-.882.159-1.051-.994-.396-1.402 2.291-1.371 1.904-4.572 1.299-6.748a11.71 11.71 0 0 0-2.549-4.721c-.39-.426-.815-.818-1.27-1.173-1.856-1.421-4.088-2.256-5.953-3.627a8.672 8.672 0 0 1-3.601-5.029c-.08-.348.446-.467.585-.169 1.052 2.345 3.522 3.777 5.715 4.9 2.192 1.123 4.434 2.166 6.121 3.975.129.139.248.278.367.427a14.177 14.177 0 0 1 2.976 7.216Zm6.38-.368c0 1.361-.992 3.458-2.59 3.329a.502.502 0 0 1-.399-.306.507.507 0 0 1 .061-.499c.414-.39.78-.827 1.092-1.302a3.638 3.638 0 0 0 .338-1.55 5.335 5.335 0 0 0-1.708-3.648c-.268-.278.189-.735.467-.477 1.32 1.153 2.759 2.574 2.739 4.453Zm-34.208 7.931a6.911 6.911 0 0 1-1.439-.994 13.337 13.337 0 0 1-1.2-1.401 20.422 20.422 0 0 1-1.875-3.041 28.578 28.578 0 0 1-2.5-6.669 28.27 28.27 0 0 1-.794-7.186 15.855 15.855 0 0 1 1.26-6.818.388.388 0 0 1 .476-.169.253.253 0 0 1 .139.239 2.052 2.052 0 0 0 0 .248c0 2.167-.268 4.324-.159 6.49a32.626 32.626 0 0 0 1.042 6.639 31.558 31.558 0 0 0 2.421 6.262 51.245 51.245 0 0 0 1.706 2.981c.278.457.566.905.834 1.362.269.514.504 1.045.704 1.59a.418.418 0 0 1-.615.467Zm56.182-81.826a22.046 22.046 0 0 0-5.377-5.894c-1.081-.894-2.193-1.769-3.284-2.663a29.654 29.654 0 0 1-1.548-1.352 9.187 9.187 0 0 0-1.398-1.312.127.127 0 0 0-.059-.021.12.12 0 0 0-.062.008.13.13 0 0 0-.05.037.129.129 0 0 0-.028.056c-.188 1.073.893 2.127 1.568 2.802.932.945 1.924 1.819 2.926 2.684a26.958 26.958 0 0 1 5.378 5.714 9.706 9.706 0 0 1 1.488 7.166 15.87 15.87 0 0 1-1.121 3.459 8.41 8.41 0 0 0-1.092 3.25c0 .139.189.159.268.069.379-.554.711-1.139.992-1.749.298-.517.615-.994.933-1.54a14.007 14.007 0 0 0 1.736-3.3 9.768 9.768 0 0 0-1.27-7.414Z" style="mix-blend-mode:screen" opacity=".27"/><path d="M197.832 133.959c-3.889-4.114-9.137-6.291-13.989-8.944a43.686 43.686 0 0 1-4.057-2.495c-1.33-.934-2.57-1.988-3.869-2.981-.139-.11-.377.059-.288.228a15.67 15.67 0 0 0 5.536 5.337c2.272 1.481 4.702 2.694 7.083 3.976 4.574 2.504 9.475 5.545 11.449 10.644a16.689 16.689 0 0 1 .457 9.432c-.08.387.456.457.615.159 2.718-5.188.873-11.38-2.937-15.356Z" style="mix-blend-mode:screen" opacity=".27"/><path d="M210.72 143.253a31.358 31.358 0 0 0-4.604-10.814 23.984 23.984 0 0 0-8.72-7.494 50.451 50.451 0 0 0-10.338-3.627 49.714 49.714 0 0 1-5.695-1.75 34.842 34.842 0 0 1-5.139-2.812c-.188-.11-.526.059-.387.308 1.627 2.862 5.189 4.234 8.146 5.237 3.412 1.153 6.944 1.879 10.258 3.3a23.678 23.678 0 0 1 8.929 6.341 27.078 27.078 0 0 1 5.149 10.416 63.37 63.37 0 0 1 1.458 7.206c.189 1.272.377 2.544.625 3.816a16.27 16.27 0 0 0 .893 3.489c.014.039.04.073.076.094a.175.175 0 0 0 .118.025.18.18 0 0 0 .153-.169c.428-2.221.485-4.498.169-6.738a51.109 51.109 0 0 0-1.091-6.828Z" style="mix-blend-mode:screen" opacity=".27"/><path d="M216.821 140.449a30.935 30.935 0 0 0-5.616-12.92 34.803 34.803 0 0 0-23.066-13.179 38.941 38.941 0 0 0-7.937-.289c-2.708.179-5.417.885-8.135.507-.189 0-.318.249-.149.358 1.855 1.143 4.058.855 6.121.686a43.702 43.702 0 0 1 7.034 0 36.917 36.917 0 0 1 13.374 3.667 30.712 30.712 0 0 1 16.131 19.49 41.849 41.849 0 0 1 1.191 8.598c.119 2.862-.139 5.814.308 8.646 0 .239.406.308.486.06a23.996 23.996 0 0 0 .992-7.792 43.051 43.051 0 0 0-.734-7.832Z" style="mix-blend-mode:screen" opacity=".27"/><path d="M242.039 189.617a25.814 25.814 0 0 1-3.601 12.374 20.961 20.961 0 0 1-9.425 8.646c-.575.259-1.101-.596-.575-.993a24.8 24.8 0 0 0 2.41-1.899c6.201-5.585 10.08-13.725 8.701-22.183a26.506 26.506 0 0 0-1.677-5.864c-2.47-6.063-6.776-11.39-10.327-16.807a47.913 47.913 0 0 1-5.953-11.598c-1.597-5.039-1.498-10.367-2.748-15.475-1.25-5.109-4.613-8.945-7.768-12.921-2.976-3.697-6.112-7.355-10.209-9.819-8.195-4.97-18.066-3.131-26.668-.418a.415.415 0 0 1-.55-.213.42.42 0 0 1 .213-.552 28.646 28.646 0 0 1 3.234-1.441c9.029-3.22 19.307-3.3 27.283 2.594 3.969 2.912 7.104 6.768 10.159 10.565a44.53 44.53 0 0 1 4.584 6.55 25.089 25.089 0 0 1 2.52 7.881c.476 2.783.684 5.616 1.16 8.408a30.575 30.575 0 0 0 2.054 6.958 72.19 72.19 0 0 0 6.865 11.628 89.231 89.231 0 0 1 7.302 11.976 27.941 27.941 0 0 1 3.016 12.603Z" style="mix-blend-mode:screen" opacity=".27"/><path d="M132.333 215.457a.42.42 0 0 1-.374.571.414.414 0 0 1-.251-.074 6.911 6.911 0 0 1-1.439-.994 13.337 13.337 0 0 1-1.2-1.401 20.381 20.381 0 0 1-1.875-3.042 28.57 28.57 0 0 1-2.5-6.668 28.28 28.28 0 0 1-.794-7.186 15.855 15.855 0 0 1 1.26-6.818.388.388 0 0 1 .476-.169c.041.165.09.328.149.487 0 2.167-.268 4.324-.159 6.49a32.626 32.626 0 0 0 1.042 6.639 31.526 31.526 0 0 0 2.421 6.261 50.938 50.938 0 0 0 1.706 2.982c.278.457.566.904.833 1.362.268.504.504 1.025.705 1.56Zm18.959-9.172c1.111 4.561-.605 10.733-5.427 12.383-.793.278-1.508-.745-.783-1.302a10.937 10.937 0 0 0 3.968-6.132 10.697 10.697 0 0 0-.833-6.798 15.301 15.301 0 0 0 2.212-.537c.354.77.643 1.568.863 2.386Zm5.219-5.129a14.176 14.176 0 0 1 2.977 7.205c.327 2.545-.338 5.804-3.294 6.351-.883.159-1.052-.994-.397-1.401 2.292-1.372 1.905-4.572 1.3-6.749a11.707 11.707 0 0 0-2.55-4.72 22.455 22.455 0 0 0 1.557-1.113c.179.139.298.278.407.427Zm6.666 2.376c1.32 1.152 2.759 2.574 2.739 4.452 0 1.362-.992 3.459-2.59 3.329a.492.492 0 0 1-.24-.1.497.497 0 0 1-.194-.463.507.507 0 0 1 .096-.242 7.24 7.24 0 0 0 1.092-1.302 3.638 3.638 0 0 0 .338-1.55 5.331 5.331 0 0 0-1.708-3.647c-.248-.269.189-.726.467-.477Zm78.862-13.915a25.814 25.814 0 0 1-3.601 12.374 20.966 20.966 0 0 1-9.425 8.646c-.576.259-1.102-.596-.576-.994a24.65 24.65 0 0 0 2.411-1.898c6.201-5.585 10.08-13.725 8.701-22.183a26.506 26.506 0 0 0-1.677-5.864c.452-.89.85-1.806 1.191-2.743a27.935 27.935 0 0 1 2.976 12.662Z" style="mix-blend-mode:multiply" opacity=".28"/></g><path d="M192.405 175.991a6.078 6.078 0 0 1-2.292-4.682 7.055 7.055 0 0 1 1.984-4.879 6.854 6.854 0 0 1 4.743-2.187 5.664 5.664 0 0 1 4.643 2.246 9.12 9.12 0 0 1 1.518 4.492 6.57 6.57 0 0 1-2.044 4.354 5.81 5.81 0 0 1-3.264 1.848 8.115 8.115 0 0 1-3.968-.795 3.473 3.473 0 0 1-2.084-1.54l.764 1.143Zm-22.48 3.15a6.089 6.089 0 0 0-.734-5.159 6.94 6.94 0 0 0-4.355-2.981 6.821 6.821 0 0 0-5.149.865 5.682 5.682 0 0 0-2.579 4.472 7.78 7.78 0 0 0 .168 1.66 7.437 7.437 0 0 0 1.101 2.912 6.591 6.591 0 0 0 4.137 2.445 5.803 5.803 0 0 0 3.741-.309 8.169 8.169 0 0 0 2.807-2.892c.6-.668.911-1.547.863-2.445v1.432Z" fill="#fff"/><path d="M202.316 171.727a5.514 5.514 0 0 0-4.196-4.154c-2.808-.487-6.082 1.362-6.568 4.134-.12.301-.207.615-.258.935-.724 4.82 5.318 5.963 8.612 4.045a4.48 4.48 0 0 0 2.41-4.96Zm-34.395 3.161a3.034 3.034 0 0 0-.278-.228 5.362 5.362 0 0 0-5.288-.537 5.24 5.24 0 0 0-3.363 4.343c-.139 2.077.555 4.254 2.599 5.089 3.413 1.411 9.147-1.501 8.463-5.636a4.19 4.19 0 0 0-2.133-3.031Z" fill="#2D2D2D"/><path d="M194.04 171.316a1.732 1.732 0 0 0 .278 1.371 1.49 1.49 0 0 0 1.707.994 1.989 1.989 0 0 0 1.607-1.839c.11-2.027-3.115-2.633-3.592-.526Zm-30.019 5.156a1.735 1.735 0 0 1 .546 1.292 1.515 1.515 0 0 1-.844 1.809 1.98 1.98 0 0 1-2.361-.616c-1.27-1.67 1.091-3.956 2.659-2.485Z" fill="#fff"/><path d="m151.898 244.182-1.457 2.296-3.872 6.143-59.158 93.633H76.24s34.693-66.779 48.389-93.594c3.275-6.41 5.343-10.535 5.44-10.932l21.829 2.454Z" fill="#864FF1"/><path d="m130.068 241.748 21.829 2.435-5.329 8.438h-21.94c3.275-6.371 5.343-10.495 5.44-10.873Z" fill="#CC9281" style="mix-blend-mode:multiply" opacity=".44"/><path d="M406.391 346.255h-11.102l-59.117-93.554-5.384-8.518 3.497-.397 18.346-1.988c.097.378 2.178 4.532 5.467 10.933 13.642 26.844 48.293 93.524 48.293 93.524Z" fill="#864FF1"/><path d="M358.044 252.719h-21.926l-5.385-8.517 21.843-2.435c.097.357 2.179 4.482 5.468 10.952Z" fill="#CC9281" style="mix-blend-mode:multiply" opacity=".44"/><path d="M398.884 346.255h-3.649L336.118 252.7l-5.385-8.517 3.497-.398 8.146 2.694 56.508 99.776Z" fill="#CC9281" style="mix-blend-mode:multiply" opacity=".44"/><path d="M167.343 240.127h-49.695v6.351h49.695v-6.351Zm197.652 0h-49.694v6.351h49.694v-6.351Z" fill="#CC9281"/><path d="M442 233.001H39.978v7.116H442v-7.116Z" fill="#F7A845"/><path d="M442 234.631H39.978v5.496H442v-5.496Zm-274.657 5.496h-49.695v6.351h49.695v-6.351Zm197.652 0h-49.694v6.351h49.694v-6.351Z" fill="#864FF1"/><path d="m150.442 246.479-3.872 6.142-59.158 93.634h-5.288l56.147-99.776h12.171Z" fill="#CC9281" style="mix-blend-mode:multiply" opacity=".44"/><path d="M113.125 214.317h-1.856v-2.306H92.945v21.01h18.324v-3.22h1.856a5.727 5.727 0 0 0 4.045-1.682 5.755 5.755 0 0 0 1.679-4.052v-3.976a5.748 5.748 0 0 0-3.526-5.331 5.726 5.726 0 0 0-2.198-.443Zm2.42 9.75a2.424 2.424 0 0 1-2.42 2.425h-1.856v-8.865h1.856a2.427 2.427 0 0 1 2.42 2.425v4.015Z" fill="#F9C853"/><path opacity=".8" d="M107.679 207.737c0 1.53-2.331 2.773-5.208 2.773-2.877 0-5.209-1.243-5.209-2.773 0-.25.062-.495.179-.716.178-.341.433-.637.744-.864A2.49 2.49 0 0 1 96.369 204a2.546 2.546 0 0 1 1.984-2.196 1.436 1.436 0 0 1-.754-1.183c0-.885.992-1.59 2.262-1.59s2.262.705 2.262 1.59a1.456 1.456 0 0 1-.754 1.183 2.55 2.55 0 0 1 1.985 2.196 1.898 1.898 0 0 1-.288.994 6.035 6.035 0 0 1 4.226 1.66c.25.305.387.688.387 1.083Z" fill="#fff"/><path d="M113.125 214.317h-1.161a17.079 17.079 0 0 1-5.988 9.543 17.023 17.023 0 0 1-13.03 3.556v5.606h18.323v-3.22h1.856a5.732 5.732 0 0 0 4.045-1.683 5.755 5.755 0 0 0 1.679-4.052v-3.975a5.745 5.745 0 0 0-5.724-5.775Zm2.42 9.75c0 .643-.255 1.26-.709 1.715a2.416 2.416 0 0 1-1.711.71h-1.856v-8.865h1.856c.642 0 1.257.255 1.711.71.454.455.709 1.072.709 1.715v4.015Z" fill="#F2704F" style="mix-blend-mode:multiply" opacity=".19"/><path d="M109.146 212.896a6.477 6.477 0 0 1-.724 2.912c-1.835 3.677-5.724 6.38-9.534 7.672a10.543 10.543 0 0 1-3.631.607 7.934 7.934 0 0 1-2.312-.448v-11.628h16.122c.051.292.077.588.079.885Z" fill="#fff" style="mix-blend-mode:screen" opacity=".24"/><path opacity=".52" d="M107.679 207.737c0 1.531-2.332 2.773-5.209 2.773s-5.208-1.242-5.208-2.773c0-.25.061-.495.178-.716a7.069 7.069 0 0 0 5.774 1.829c3.879-.318 4.038-2.216 4.038-2.216.269.305.42.696.427 1.103Z" fill="#fff"/><path d="m163.06 55.424 5.278 2.087a.444.444 0 0 0 .626-.392.446.446 0 0 0-.081-.273l-2.887-4.463a.437.437 0 0 1 .05-.556l2.907-3.101a.445.445 0 0 0 .072-.558.446.446 0 0 0-.529-.188l-4.186 1.223a.456.456 0 0 1-.506-.18l-2.084-3.21a.452.452 0 0 0-.464-.192.46.46 0 0 0-.359.352l-.823 4.224a.44.44 0 0 1-.318.348l-3.919 1.152a.454.454 0 0 0-.308.433.46.46 0 0 0 .308.432l3.185 1.252a.46.46 0 0 1 .278.507l-.873 4.433a.46.46 0 0 0 .242.482.454.454 0 0 0 .531-.085l3.393-3.617a.467.467 0 0 1 .467-.11Z" fill="#864FF1"/><path d="m129.725 46.4 5.278 2.087a.454.454 0 0 0 .618-.403.454.454 0 0 0-.073-.273l-2.847-4.452a.465.465 0 0 1 0-.557l2.976-3.11a.453.453 0 0 0 .047-.542.453.453 0 0 0-.503-.204l-4.187 1.232a.443.443 0 0 1-.506-.188l-2.083-3.2a.457.457 0 0 0-.824.158l-.873 4.224a.453.453 0 0 1-.317.348l-3.919 1.153a.45.45 0 0 0-.315.427.452.452 0 0 0 .315.428l3.185 1.262a.435.435 0 0 1 .278.507l-.864 4.432a.454.454 0 0 0 .242.482.456.456 0 0 0 .532-.084l3.363-3.648a.448.448 0 0 1 .477-.08Z" fill="#FFC652"/><path d="m112.492 72.708.367 5.675a.46.46 0 0 0 .346.412.457.457 0 0 0 .498-.203l2.787-4.522a.449.449 0 0 1 .516-.199l4.048 1.312a.454.454 0 0 0 .523-.182.459.459 0 0 0-.037-.554l-2.907-3.26a.447.447 0 0 1 0-.536l1.984-3.26a.454.454 0 0 0-.235-.658.456.456 0 0 0-.261-.018l-4.166 1.064a.487.487 0 0 1-.457-.14l-2.708-3.06a.46.46 0 0 0-.517-.114.462.462 0 0 0-.277.451l.228 3.42a.442.442 0 0 1-.347.466l-4.365 1.114a.448.448 0 0 0 0 .864l4.712 1.53a.454.454 0 0 1 .268.398Z" fill="#FF6551"/><path d="M155.828 93.191a47.894 47.894 0 0 0-14.366-9.63c-1.19-.517-2.242 1.242-.992 1.769a46.325 46.325 0 0 1 13.949 9.312c.903.915 2.351-.526 1.409-1.45Zm8.363-9.133-2.648-9.55a1.034 1.034 0 0 0-.865-.75 1.024 1.024 0 0 0-1.022.513 1.034 1.034 0 0 0-.098.783l2.649 9.551a1.03 1.03 0 0 0 1.887.236c.135-.237.17-.519.097-.783Zm12.163-10.833a79.465 79.465 0 0 0-6.509 15.901 1.034 1.034 0 0 0 .72 1.267 1.026 1.026 0 0 0 1.265-.72 76.766 76.766 0 0 1 6.27-15.365c.625-1.213-1.141-2.246-1.746-1.083ZM59.731 135.044c-2.361-3.19-6.488-3.34-9.593-5.397-3.78-2.495-5.437-7.146-7.173-11.122l-1.439-3.279a13.287 13.287 0 0 0-1.647-3.37c-1.379-1.58-3.591-.646-5.228-.109a441.044 441.044 0 0 0-15.15 5.248 464.09 464.09 0 0 0-16.865 6.5.997.997 0 0 0-.546 1.342l11.657 23.425a1.063 1.063 0 0 0 1.4.477.985.985 0 0 0 .793 0l21.568-9.302a15.999 15.999 0 0 1 5.298-1.7c1.756-.119 3.542.09 5.308.07a57.72 57.72 0 0 0 10.913-1.123.992.992 0 0 0 .947-1.158.997.997 0 0 0-.243-.502Zm-17.55.696a17.836 17.836 0 0 0-5.08 1.649l-21.826 9.413c-3.624-7.289-7.242-14.558-10.853-21.806a503.39 503.39 0 0 1 27.52-10.198l3.463-1.143c.734-.248 2.242-.993 2.976-.387.277.401.488.844.625 1.312l.715 1.64 1.518 3.468c1.676 3.817 3.303 7.951 6.518 10.724a16.851 16.851 0 0 0 5.317 2.823 15.37 15.37 0 0 1 3.73 1.779 57.33 57.33 0 0 1-8.928.775c-1.935.01-3.82-.248-5.695-.069v.02Z" fill="#49B3F7"/><path d="m32.498 120.543-18.136 6.311c-1.24.438-.436 2.316.804 1.889l18.125-6.311c1.25-.438.447-2.316-.793-1.889Zm3.74 3.669-23.612 8.795c-1.23.457-.437 2.346.793 1.889l23.593-8.796c1.26-.467.466-2.306-.774-1.888Zm1.637 5.903a108.184 108.184 0 0 0-21.32 7.066 1.028 1.028 0 0 0 .019 1.896c.252.102.534.099.784-.008a105.66 105.66 0 0 1 20.834-6.957c1.23-.248.972-2.285-.317-1.997ZM348.254 29.57a.862.862 0 0 1-.635-.27 120.2 120.2 0 0 0-8.671-8.467 97.02 97.02 0 0 0-3.909 1.084c-1.835.526-3.72 1.073-6.944 1.848a.882.882 0 0 1-.992-.407.88.88 0 0 1 .119-.994c3.77-3.976 5.655-6.38 7.837-9.114l.754-.944c-.486-1.471-2.103-6.222-3.254-8.945a.88.88 0 0 1 .228-.994.852.852 0 0 1 .992-.1 54.344 54.344 0 0 0 9.058 4.215L349.782.23a.862.862 0 0 1 1.429.824l-1.984 9.154a58.59 58.59 0 0 1 9.831 3.2.86.86 0 0 1 .533.83.869.869 0 0 1-.592.79 139.172 139.172 0 0 1-10.775 3.15l.854 10.486a.868.868 0 0 1-.506.865.903.903 0 0 1-.318.04Zm-9.068-10.556a.812.812 0 0 1 .566.22 128.37 128.37 0 0 1 7.441 7.095l-.725-8.776a.874.874 0 0 1 .665-.914c3.046-.735 6.092-1.59 9.098-2.544a57.289 57.289 0 0 0-8.185-2.415.925.925 0 0 1-.546-.378.9.9 0 0 1-.119-.656l1.617-7.354-5.317 4.79a.866.866 0 0 1-.863.169 56.262 56.262 0 0 1-7.709-3.34c1.22 3.23 2.49 7.067 2.56 7.276a.903.903 0 0 1-.149.815l-1.052 1.301c-1.786 2.237-3.383 4.234-5.953 7.077 1.618-.428 2.838-.785 4.038-1.133 1.379-.398 2.679-.775 4.415-1.213l.218-.02Zm26.272 39.1a.716.716 0 0 1-.417-.418 110.93 110.93 0 0 0-4.305-9.531c-1.32-.169-2.371-.258-3.483-.368-1.637-.149-3.323-.298-6.141-.685a.741.741 0 0 1-.635-.627.726.726 0 0 1 .417-.785c4.286-2.047 6.538-3.349 9.157-4.85l.893-.526c.069-1.332.268-5.666.198-8.22a.741.741 0 0 1 1.33-.477 47.733 47.733 0 0 0 5.952 6.232l7.53-2.843a.745.745 0 0 1 .883 1.113l-4.474 6.719a50.917 50.917 0 0 1 6.895 5.675.743.743 0 0 1-.565 1.282 120.64 120.64 0 0 1-9.644-.865l-2.599 8.697a.737.737 0 0 1-.684.526.645.645 0 0 1-.308-.05Zm-3.968-11.34a.814.814 0 0 1 .396.357 111.79 111.79 0 0 1 3.741 8.05l2.182-7.284a.736.736 0 0 1 .814-.517 122.3 122.3 0 0 0 8.105.815 49.273 49.273 0 0 0-5.813-4.522.745.745 0 0 1-.318-.467.76.76 0 0 1 .109-.567l3.602-5.406-5.774 2.176a.734.734 0 0 1-.745-.13 49.097 49.097 0 0 1-5.148-5.108c0 2.982-.219 6.46-.229 6.64a.717.717 0 0 1-.367.606l-1.25.725c-2.143 1.233-4.048 2.336-7.004 3.807 1.429.169 2.52.268 3.601.367 1.23.11 2.391.22 3.969.418l.129.04Zm49.136 157.211a7.392 7.392 0 0 0-8.839.229.791.791 0 0 0-.347.655 6.34 6.34 0 0 0-2.411 5.606c.099 1.54 1.24 2.236 2.53 2.793 1.467.66 3.02 1.109 4.613 1.331 2.877.368 5.575-.835 6.637-3.647a6.136 6.136 0 0 0 .059-3.845 6.117 6.117 0 0 0-2.242-3.122Zm-.248 7.861c-2.063 2.177-5.823.994-8.175-.069-.605-.269-1.418-.547-1.537-1.302a5.234 5.234 0 0 1 .168-1.749 3.516 3.516 0 0 1 1.915-2.734.831.831 0 0 0 .546-.814 5.63 5.63 0 0 1 3.323-.917 5.634 5.634 0 0 1 3.235 1.195 4.382 4.382 0 0 1 1.645 3.081 4.393 4.393 0 0 1-1.12 3.309Zm12.074-18.078c-1.092-.775-4.316-1.341-5.06.239a.822.822 0 0 0-.933.328 3.85 3.85 0 0 0 .903 5.148 4.35 4.35 0 0 0 5.467-.507 3.343 3.343 0 0 0 1.069-2.695 3.33 3.33 0 0 0-1.446-2.513Zm-1.568 4.572c-1.984.875-4.256-.994-3.135-2.982a.696.696 0 0 0 .677.05.706.706 0 0 0 .404-.547c0-.298 1.33-.228 1.508-.208a2.36 2.36 0 0 1 1.538.765c.923 1.073.149 2.385-.992 2.892v.03Zm3.96 11.957a4.23 4.23 0 0 0-4.752-2.564.826.826 0 0 0 .437 1.58c1.984-.556 4.454 3.34 2.282 3.797a6.476 6.476 0 0 1-2.977-.318c-.992-.348-2.093-1.878-.605-2.475.992-.377.546-1.988-.436-1.58a2.784 2.784 0 0 0-1.78 1.836 2.797 2.797 0 0 0 .46 2.517c1.191 1.541 3.968 1.988 5.784 1.6 2.083-.457 2.45-2.683 1.587-4.393ZM267.876 68.387a6.42 6.42 0 0 0-7.312-2.167.834.834 0 0 0-.545.904 4.079 4.079 0 0 0-2.977 3.5c-.307 2.762 1.737 4.968 4.118 6.032 2.381 1.063 5.218 1.341 6.885-1.074a6.412 6.412 0 0 0-.169-7.195Zm-1.984 7.096c-.992.686-2.401.288-3.482-.09a6.094 6.094 0 0 1-2.977-1.987 3.492 3.492 0 0 1-.595-3.32 2.308 2.308 0 0 1 2.54-1.411.86.86 0 0 0 1.041-.702.863.863 0 0 0-.049-.46 4.595 4.595 0 0 1 4.306 1.987c1.121 1.68 1.091 4.71-.814 5.983h.03Zm-5.109-22.988a4.477 4.477 0 0 0-5.635 1.302.7.7 0 0 0-.104.674.7.7 0 0 0 .521.44 3.674 3.674 0 0 0 .833 4.581 3.965 3.965 0 0 0 5.953-1.312 4.355 4.355 0 0 0-1.568-5.685Zm.367 4.314a2.345 2.345 0 0 1-1.24 1.665 2.345 2.345 0 0 1-2.073.034 2.147 2.147 0 0 1-.248-3.598.896.896 0 0 0 .218-1.182 2.634 2.634 0 0 1 3.276 1.727c.14.438.163.904.067 1.354Zm14.009.556c-.864-2.227-3.443-4.115-5.784-3.051a.834.834 0 0 0-.229.159 2.86 2.86 0 0 0-.902.487 3.296 3.296 0 0 0-1.082 2.981 4.597 4.597 0 0 0 1.569 2.81 4.58 4.58 0 0 0 3.025 1.086c2.242-.07 4.295-2.196 3.403-4.472Zm-4.038 2.792a2.914 2.914 0 0 1-2.352-2.494c-.138-1.849 1.637-1.819 2.977-1.66.085.02.173.02.258 0a4.06 4.06 0 0 1 1.696 2.107c.397 1.441-1.409 2.286-2.579 2.047ZM28.343 62.33a.991.991 0 0 1-.705-.298l-11.19-11.38L3.41 56.277a.99.99 0 0 1-1.38-.786.996.996 0 0 1 .11-.595L8.62 42.79.237 32.97a.995.995 0 0 1-.12-1.112.993.993 0 0 1 .993-.527l12.629 1.391 8.036-16.16a.993.993 0 0 1 1.875.288l2.709 17.184L39.8 38.715a.992.992 0 0 1 .665.994.995.995 0 0 1-.675.935l-12.32 4.174 1.895 16.409a.996.996 0 0 1-.556.994.992.992 0 0 1-.466.11ZM16.676 48.475a.991.991 0 0 1 .704.299l9.653 9.81-1.657-14.372a.995.995 0 0 1 .665-1.064l10.357-3.498-11.29-3.976a.993.993 0 0 1-.644-.785l-2.332-14.66-6.964 14.044a.993.993 0 0 1-.992.546L3.341 33.587l7.202 8.428a.995.995 0 0 1 .12 1.113L5.227 53.326l11.052-4.771a.99.99 0 0 1 .397-.08Zm28.369 228.068h-.447c-3.899-.188-7.282-3.548-7.242-7.195a6.822 6.822 0 0 1 3.12-5.272 6.802 6.802 0 0 1 6.087-.632.999.999 0 0 1 .64.945.99.99 0 0 1-.669.925 1 1 0 0 1-.785-.061 4.838 4.838 0 0 0-5.721 2.052 4.86 4.86 0 0 0-.688 2.063c0 2.584 2.52 5.059 5.347 5.188a5.32 5.32 0 0 0 3.284-.701 5.334 5.334 0 0 0 2.213-2.529 5.845 5.845 0 0 0-1.756-6.58.991.991 0 0 1-.273-1.072.998.998 0 0 1 .885-.662 1.002 1.002 0 0 1 .717.254 7.834 7.834 0 0 1 2.322 8.805 7.276 7.276 0 0 1-7.034 4.472ZM30.826 288.4a5.54 5.54 0 0 1-1.806-.288 5.051 5.051 0 0 1-1.21-.587 3.603 3.603 0 0 1-1.806-3.299 7.278 7.278 0 0 1 5.238-5.745 4.345 4.345 0 0 1 4.802 2.038 4.538 4.538 0 0 1-.159 5.486 6.506 6.506 0 0 1-5.06 2.395Zm1.478-8.06c-.214.003-.427.03-.635.079a5.278 5.278 0 0 0-3.69 4.055c-.07.507.406 1.064.912 1.392.236.152.489.275.754.367a4.452 4.452 0 0 0 4.663-1.451 2.575 2.575 0 0 0 .06-3.19 2.434 2.434 0 0 0-2.064-1.252Zm16.032 10.068a4.763 4.763 0 0 1-1.488-.239 3.977 3.977 0 0 1-2.639-3.15c-.1-.558-.08-1.131.06-1.68a4.695 4.695 0 0 1 1.71-2.515 4.678 4.678 0 0 1 2.893-.934 4.181 4.181 0 0 1 3.906 2.646 4.202 4.202 0 0 1-1.03 4.61 5.075 5.075 0 0 1-3.412 1.262Zm-2.212-3.737a1.99 1.99 0 0 0 1.32 1.62 3.125 3.125 0 0 0 2.926-.646 2.11 2.11 0 0 0 .605-2.177 2.076 2.076 0 0 0-2.103-1.59 2.695 2.695 0 0 0-2.669 1.988 1.992 1.992 0 0 0 0 .855l-.08-.05Zm332.985-192.24 19.028-2.444c1.31-.17 1.429 1.878.129 1.987l-19.038 2.455c-1.3.219-1.419-1.829-.119-1.998Zm-1.726 4.949 25.06-2.673c1.31-.14 1.429 1.908.119 2.047l-25.05 2.674c-1.31.139-1.478-1.908-.129-2.048Zm1.159 6.013a108.458 108.458 0 0 1 22.233-3.19 1.018 1.018 0 0 1 1.082.954c.017.27-.074.536-.252.74a1.024 1.024 0 0 1-.701.344c-7.32.28-14.591 1.319-21.697 3.1-1.27.318-1.944-1.62-.665-1.948Z" fill="#49B3F7"/><path d="M385.26 126.136a.994.994 0 0 1-.972-1.223 44.347 44.347 0 0 0 1.22-9.283 32.967 32.967 0 0 1-10.913-1.987 15.08 15.08 0 0 1-8.82-8.548 11.686 11.686 0 0 1 .675-9.82c3.264-6.092 11.27-9.938 17.143-11.41 7.848-1.987 15.755-2.176 20.11-1.54h.308c3.879.567 7.937 1.153 11.082 4.095 3.512 3.25 4.593 8.945 2.619 13.915-1.627 4.104-5.179 7.722-10.011 10.177a55.375 55.375 0 0 1-12.817 4.214c-.993 4.751-4.961 8.14-9.048 11.211a.993.993 0 0 1-.576.199Zm-1.23-40.362c-5.903 1.471-13.106 5.258-15.874 10.416a9.791 9.791 0 0 0-.555 8.219 13.145 13.145 0 0 0 7.708 7.395 32.544 32.544 0 0 0 11.241 1.898.992.992 0 0 1 .992.994 47.183 47.183 0 0 1-.734 8.011c3.095-2.534 5.764-5.357 6.28-8.945a.996.996 0 0 1 .754-.825c4.385-.994 8.929-2.077 12.947-4.135 4.405-2.236 7.619-5.486 9.077-9.143 1.667-4.224.794-9.055-2.123-11.758-2.738-2.524-6.28-3.041-10.03-3.588h-.297c-4.058-.626-11.836-.407-19.386 1.461Z" fill="#49B3F7"/><defs><linearGradient id="a" x1="253.225" y1="247.395" x2="357.918" y2="247.395" gradientUnits="userSpaceOnUse"><stop stop-color="#FFD247"/><stop offset="1" stop-color="#FFDF7B"/></linearGradient></defs></svg>