<svg width="360" height="190" fill="none" xmlns="http://www.w3.org/2000/svg"><path d="M279.43 175.009c-5.21 1.04-10.54 1.68-15.63 2.26-13.09 1.49-26.35.4-39.49 1.33-15.67 1.11-30.31 5.1-45.31 8.06-18.05 3.57-35.7 4.73-53.57.26a271.012 271.012 0 0 0-54.26-7.86c-5.68-.24-11.42-.31-16.93-1.71-11.44-2.9-20.12-12.06-23.19-23.52-1.43-5.34-1.64-11.12-4.27-15.97-2.39-4.42-6.51-7.57-9.83-11.33-10.61-12.03-12.13-31.32-3.54-44.91 7.32-11.58 20.29-18.19 29.18-28.58 3.76-4.4 6.76-9.44 10.65-13.72 11.99-13.19 29.51-16.57 46.22-19.14 7.85-1.21 15.22-3.69 23.23-4.78 9.87-1.34 19.82-2.16 29.78-2.26 14.77-.15 29.05-.52 43.59-3.75 16.82-3.74 39.34-2.1 55.06 2.93 13.86 4.44 27.01 13.03 35.8 23.36 3.99 4.69 7.93 9.62 12.62 13.8 6.42 5.8 14.18 10.41 20.34 16.42 13.6 13.26 18.04 32.2 16.45 49.97-1.98 22.19-17.38 40.12-37.76 52.35-5.65 3.41-12.3 5.43-19.14 6.79Z" fill="#FFC652"/><path d="M12.22 122.6C1.61 110.57.09 91.28 8.68 77.69 16 66.11 28.97 59.5 37.86 49.11c3.76-4.4 6.76-9.44 10.65-13.72C60.5 22.2 78.02 18.82 94.73 16.25c7.85-1.21 15.22-3.69 23.23-4.78 9.87-1.34 19.82-2.16 29.78-2.26 14.77-.15 29.05-.52 43.59-3.75 16.82-3.74 39.34-2.1 55.06 2.93 13.86 4.44 27.01 13.03 35.8 23.36" stroke="#49B3F7" stroke-width="1.976" stroke-miterlimit="10" stroke-linecap="round" stroke-linejoin="round" stroke-dasharray="9.88 9.88"/><path d="M326.399 108.21h-145.84v18.82h145.84v-18.82Z" fill="#49B3F7"/><path d="M359.849 131.93h-179.29v18.82h179.29v-18.82Z" fill="#67D449"/><path d="M281.219 84.499h-100.66v18.82h100.66v-18.82Z" fill="#864FF1"/><path d="M234.679 60.78h-54.12V79.6h54.12V60.78Z" fill="#FF6551"/><path d="M306.639 37.07h-126.08v18.82h126.08V37.07Z" fill="#49B3F7"/><path d="M173.449 24.48v134.049h161.8" stroke="#FF6551" stroke-width="1.976" stroke-miterlimit="10" stroke-linecap="round" stroke-linejoin="round" stroke-dasharray="9.88 9.88"/><path d="M106.38 145.69c31.06 0 56.24-25.18 56.24-56.24 0-31.06-25.18-56.24-56.24-56.24-31.06 0-56.24 25.18-56.24 56.24 0 31.06 25.18 56.24 56.24 56.24Z" fill="#864FF1"/><mask id="a" style="mask-type:alpha" maskUnits="userSpaceOnUse" x="50" y="33" width="113" height="113"><path d="M106.38 145.69c31.06 0 56.24-25.18 56.24-56.24 0-31.06-25.18-56.24-56.24-56.24-31.06 0-56.24 25.18-56.24 56.24 0 31.06 25.18 56.24 56.24 56.24Z" fill="#864FF1"/></mask><g mask="url(#a)"><path d="M108.87 137.17c-7.64.53-15.49 1.19-23.01-.48-12.98-2.89-15.45-11.79-15.45-11.79 2.48-2.96 3.58-6.89 3.76-10.75.25-5.2-.66-10.48-.78-15.67-.17-7.22-.44-14.72-.18-22.05.24-6.82.09-15.87 3.64-21.91 2.13-3.63 5.5-6.36 9.07-8.5 4.94-2.95 11.35-3.28 16.57-.86.34.16 5.39-2.24 6.35-2.38 2.42-.35 4.77-.08 7.11.57 3.53.98 6.8 2.23 9.7 4.54 7.92 6.28 9.59 16.76 9.73 26.28.17 11.86.2 23.6 1.41 35.42.49 4.82 1.35 12.51 5.07 15.62-6.06 8.63-19.66 10.5-26.64 11.36-2.11.25-4.23.46-6.35.6Z" fill="#593228"/><path d="M88.981 114.491c-.23 2.77-.81 5.52-1.69 7.96-.12.35-.33.75-.7.76-.29.01-.53-.25-.59-.54-.06-.28 0-.57.07-.85.31-1.28.65-2.55.91-3.84.85-4.3.42-8.33-.13-12.61-.02-.14-.03-.3.06-.41.15-.19.45-.1.65.03.77.54 1.03 1.56 1.18 2.49.37 2.21.44 4.61.24 7.01Zm4.059-4.391c.43 1.62.8 4.03-.2 5.17-.82.93-.99-1.06-.97-1.51.05-1.7.09-3.39.14-5.09.01-.31.04-.65.28-.84.21.77.55 1.49.75 2.27Zm-18.47 16.531c.17.01.35-.14.47-.28 2.58-3.01 3.5-7.05 3.7-10.92.07-1.37.13-12.82-.92-12.93-.47-.05-.62.62-.58 1.09.28 3.67.5 7.36.23 11.04-.14 1.87-.4 3.73-.85 5.54-.5 2.01-2.28 3.96-2.31 6.04 0 .13.01.28.11.36.05.04.1.06.15.06Zm8.961-18.901c-.17-1.08-.38-2.15-.63-3.21-.14-.61-1.81-6.94-1.84-6.93-1.94.64.57 7.86.88 9.32.52 2.5.48 5.19.45 7.74-.08 5.07-.81 10.13-2.19 15.02.66.2 1.15-.6 1.38-1.25.83-2.41 1.95-4.99 2.3-7.5.38-2.7.36-5.52.2-8.24-.1-1.66-.28-3.31-.55-4.95Zm38.999 8.29c.5 2.73 1.35 5.42 2.46 7.76.16.33.4.71.77.69.29-.02.5-.3.54-.59.04-.29-.06-.57-.16-.84-.44-1.24-.9-2.47-1.28-3.73-1.27-4.2-1.23-8.25-1.1-12.57 0-.14 0-.3-.1-.4-.17-.17-.46-.06-.64.1-.71.62-.87 1.65-.93 2.59-.17 2.22 0 4.62.44 6.99Zm-4.479-6.04c-.27 1.65-.4 4.08.7 5.12.91.85.88-1.15.82-1.59-.21-1.68-.42-3.37-.64-5.05-.04-.3-.1-.65-.36-.81-.13.79-.39 1.54-.52 2.33Zm19.999 13.62c-.16.02-.37-.1-.5-.23-2.87-2.75-4.18-6.67-4.76-10.51-.21-1.36-1.38-12.74-.35-12.95.46-.09.67.55.68 1.02.06 2.65.05 6.37.86 11.01.32 1.84.76 3.67 1.39 5.43.69 1.95 2.65 3.72 2.89 5.78.02.13.02.28-.07.37-.03.05-.08.07-.14.08Zm-10.77-17.94c.07-1.09.17-2.18.31-3.26.08-.62 1.12-7.08 1.15-7.08 1.99.45.2 7.87.04 9.37-.27 2.54.03 5.21.31 7.74a58.43 58.43 0 0 0 3.65 14.73c-.64.27-1.2-.48-1.49-1.11-1.07-2.32-2.43-4.77-3.03-7.24-.64-2.65-.9-5.46-1.01-8.18-.05-1.65-.03-3.31.07-4.97Z" fill="#6B3D2D"/><path d="M79.74 180.92c-.74-2.11-2.95-7.59-2.04-10.44.91-2.85 2.36-4.43 2.78-7.06.42-2.63 3.37-23.22 3.37-23.22l5.46 1.08s-2.3 13.08-3.14 16.56c-.84 3.48-1.58 4.85-1.26 7.17.32 2.32 2.32 9.17 1.26 9.8-1.06.63-1.61-.84-2.13-1.16-.53-.32-.61 2-.08 4.64.53 2.64-.62 3.27-1.26 2.64-.64-.63-1.5-4.85-1.5-4.85s1.18 4.67.55 5.08c-.64.39-2.01-.24-2.01-.24Z" fill="#FFBF94"/><path d="M95.79 116.06s-5.06-.35-7.17 2.22c-2.11 2.56-6.35 18.41-7.65 20.98 0 0 1.96 4.67 9.55 3.2 0 0 4.46-17.18 5.27-21.37.81-4.2 0-5.03 0-5.03Z" fill="#FF6551"/><path d="M82.23 135.82c-.53 1.61-.97 2.86-1.26 3.43 0 0 1.96 4.67 9.55 3.2l1.14-4.43c-3.38.47-6.78 0-9.43-2.2Z" fill="#E1594B"/><path d="M130.821 180.919c.74-2.11 2.95-7.59 2.04-10.44-.91-2.85-2.36-4.43-2.78-7.06-.42-2.64-3.37-23.22-3.37-23.22l-5.46 1.08s2.3 13.08 3.14 16.56c.84 3.48 1.58 4.85 1.26 7.17-.32 2.32-2.32 9.17-1.26 9.8 1.05.63 1.79-2.21 2.32-2.53.53-.32.42 3.37-.11 6.01-.53 2.64.62 3.27 1.26 2.64.64-.63 1.5-4.85 1.5-4.85s-1.18 4.67-.55 5.08c.64.39 2.01-.24 2.01-.24Z" fill="#FFBF94"/><path d="M114.871 116.06s4.8-.45 6.67 1.23c1.88 1.69 4.01 8.14 5.24 12.91 1.1 4.26 3.27 10.86 3.27 10.86s-5.37 2.54-9.69 2.01l-4.64-23.26-.85-3.75Z" fill="#FF6551"/><path d="m119.531 138.95.82 4.13c4.33.53 9.69-2.01 9.69-2.01s-.51-1.54-1.15-3.6c-2.75 1.52-6.11 1.54-9.36 1.48Z" fill="#E1594B"/><path d="M102.271 113.83s-7.67 1.55-8.42 2.22c-.75.67-4.58 21.33-5.04 24.81-.45 3.48-1.09 18.34-1.09 20.24 0 1.9 4.43 6.85 15.71 7.17 11.28.32 17.6-3.27 18.76-3.79 1.16-.53 2.02-1.69 2.06-5.59.05-3.9-2.91-26.46-4.07-31.31-1.16-4.85-2.21-10.93-3.69-11.53-1.46-.59-7.26-2.15-14.22-2.22Z" fill="#E1594B"/><path d="M100.381 116.061s-3.7-.78-5.28 1.47-3.37 10.56-2.9 16.4c.47 5.83 4.06 13.63 4.06 13.63-.74 1.86-3.87-3.16-4.61-2.53-.74.63-1.3 10.02.55 14.26 1.84 4.24 7.5 6.66 14.9 6.14 7.4-.52 9.64-4.85 11.58-8.12 1.93-3.27 2.5-10.91 1.77-10.7-.73.21.39-.74-4.69 1.27 0 0-2.48.95-.47-1.37 2.01-2.32 3.22-1.32 3.95-9.01.74-7.69-2-18.84-3.16-19.96-1.16-1.12-4.43-1.02-5.48-.7-1.05.32-9.28-.07-11.07-1.03" fill="#FF6551"/><path d="M102.271 113.83s-1.78.36-3.71.81c.67 1.73 2.38 4.44 6.7 4.81 4.62.39 6.79-2.35 7.67-4.4-2.66-.59-6.44-1.18-10.66-1.22Z" fill="#E1594B"/><path d="M110.64 115.12s-1.32 2.79-5.39 2.37c-4.07-.42-4.92-2.53-4.92-2.53l.06-2.21.09-5.46 9.72.4.91-.18-.05.81-.26 4.21-.16 2.59Z" fill="#EA9573"/><path opacity=".31" d="M110.8 111.38c-1.33 1.34-3.03 2.69-4.51 2.73-2.92.08-5.83-2.45-5.9-2.52l.09-5.46 9.72.4.86.64-.26 4.21Z" fill="#DD7258"/><path d="M127.03 83.86s3.45-1.83 5.43.81c1.98 2.64-1 9.47-3.35 10.17-2.34.7-3.27.05-3.27.05l1.19-11.03Zm-43.57.66s-3.5-1.73-5.41.97c-1.91 2.7 1.25 9.44 3.61 10.07 2.36.63 3.27-.05 3.27-.05l-1.47-10.99Z" fill="#FFBF94"/><path d="M128.54 73.7s-.51 9.96-1.41 17.98v.03c-.14 1.2-.28 2.36-.43 3.44v.02c-.46 3.22-3.99 6.7-4.58 7.32-2.12 2.2-11.3 9.57-16.11 9.3-4.81-.27-15.58-6.69-17.65-9.05-.66-.76-3.41-4.47-4.11-7.77-1.49-7.01-2.8-16.81-2.8-16.81.31-16.17 8.52-21.76 24.57-22.58 16.04-.8 22.52 18.12 22.52 18.12Z" fill="#FFBF94"/><path opacity=".28" d="M80.51 74.28c-.36-1.74.87-3.39 2.11-4.73 4.22-4.53 9.45-8.21 15.25-10.75 4.66-2.04 9.98-3.33 14.94-2.07 2.38.6 4.55 1.77 6.69 2.92.99.53 1.98 1.07 2.81 1.8.75.66 1.35 1.47 1.91 2.28 2.36 3.42 4.24 7.13 5.58 11.01.29.85.57 1.75.41 2.63-.14.81-.63 1.53-1.17 2.16a12.245 12.245 0 0 1-4.29 3.18c-.69-2.56-1.38-5.11-2.06-7.67-.97 1.44-2.74 2.36-4.55 2.37-.56-2.31-1.78-4.48-3.5-6.21-1.17 2.06-3.39 3.44-5.72 4.25-.19-2.41-.83-4.78-1.88-6.98-.69 2.15-1.37 4.31-2.06 6.46-2.03-.29-3.87-1.54-4.81-3.26-1.36 1.61-2.01 3.74-1.76 5.78-2.9.45-6.01-1-7.38-3.44l-1.5 7.09c-2.07-.35-3.96-1.51-5.14-3.14a9.89 9.89 0 0 0-.39 5.62s-1.51-.35-1.84-1.44c-.36-1.09-1.65-7.86-1.65-7.86Z" fill="#DA8966"/><path d="M131.65 72.11c-1.49-8.2-12.59-18.46-27.93-19.01-15.33-.55-27.09 11.57-26.21 21.32.45 4.99 1.66 7.55 3.15 8.89 1.43 1.28 3.16 1.44 3.16 1.44-1.77-5.24 1.23-11.53 1.23-11.53.16 3.84 4.35 6.74 4.35 6.74-1.7-7.98 2.72-11.77 2.72-11.77-.55 6.59 4.58 8.38 4.58 8.38-.81-5.03 3.29-8.71 3.29-8.71.27 4.16 4.12 5.64 4.12 5.64-.77-5.92 1.69-9.71 3.85-11.84.95 2.41 2.48 7.1 2.33 11.97 0 0 4.42-3.68 4.82-5.88 0 0 4.2 3.45 4.59 9.03 0 0 3.16-2.46 2.8-5.3 0 0 3.77 3.35 3.44 10.81 0 0 .49-.69 1.42-2.01.31 2.69.2 4.69-.14 5.11 0-.02 5.93-5.08 4.43-13.28Z" fill="#593228"/><path d="M114.23 79.71c.19.29.51.26.82.29.36.03.72.03 1.08.03.7.01 1.41.09 2.06.36.6.25 1.15.64 1.68 1.02.26.19.51.4.79.55.14.08.34.19.49.23.16.05.33.01.49.07.19.07.31-.17.24-.33-.08-.17-.06-.37-.15-.54-.09-.18-.23-.37-.36-.52a5.57 5.57 0 0 0-.87-.81c-.64-.5-1.37-.89-2.13-1.12-.81-.25-1.65-.26-2.49-.15-.26.04-2.03.33-1.65.92Zm-20.58.8c-.5-.54-1.48-.32-2.12-.22-.73.12-1.41.36-2.08.69-.64.31-1.23.71-1.78 1.18-.47.4-1.25 1.12-1.05 1.83.06.21.24.32.44.34.58.06 1.15-.69 1.57-1.02.47-.38.99-.71 1.54-.96.53-.24 1.09-.41 1.65-.55.59-.14 1.38-.05 1.84-.5.21-.23.18-.59-.01-.79Z" fill="#5F130F"/><path opacity=".44" d="M83.36 92.97c-1.25-.61-2.47-1.97-2.94-3.38-.21-.65-.18-1.71.63-1.83.66-.11.95.83 1.25 1.3.16.25.58.09.47-.22-.28-.85-.56-1.93-1.54-2.04-1.01-.12-1.76.86-1.85 1.87-.11 1.24.59 2.38 1.25 3.32.68.97 1.51 1.76 2.68 1.48.2-.05.24-.41.05-.5Zm48.19-5.19c-.07-.93-.79-1.76-1.69-1.35-.61.27-1.57 1.58-.9 2.23.08.08.18.05.24-.04.33-.49.36-1.28 1-1.47.88-.26.61 1.37.52 1.84-.11.58-.3 1.14-.63 1.62-.35.51-.85.72-1.36 1-.11.06-.11.23-.03.32.72.83 1.73-.32 2.11-1 .51-.88.82-2.13.74-3.15Z" fill="#DA8966"/><path d="M111.05 100.07c-.23.92-.68 2.18-1.53 3.26-.9 1.13-2.24 2.04-4.25 2.11-2.28.09-3.75-1.02-4.7-2.34-.73-1.02-1.14-2.16-1.37-2.98a.656.656 0 0 1 .03-.44c.12-.28.44-.47.77-.36l.21.07c3.25 1.02 6.72.96 9.93-.17a.57.57 0 0 1 .22-.04c.3 0 .57.2.66.48.06.13.07.27.03.41Z" fill="#831532"/><path d="M111.04 99.66c-.79.61-3.01 2.1-5.87 2.14-2.74.04-4.99-1.41-5.92-2.1.12-.28.44-.47.77-.36l.21.07c3.25 1.02 6.72.96 9.93-.17a.57.57 0 0 1 .22-.04c.3-.02.56.18.66.46Z" fill="#fff"/><path d="M109.52 103.329c-.9 1.13-2.24 2.04-4.25 2.11-2.28.09-3.75-1.02-4.7-2.34 1.4-.37 4.99-1.08 8.95.23Z" fill="#FF6551"/><path d="M95.21 98.207c.265-1.118-1.168-2.414-3.2-2.895-2.03-.48-3.892.035-4.157 1.153-.264 1.118 1.168 2.414 3.2 2.895 2.03.481 3.892-.035 4.157-1.153Zm24.324.781c2.06-.34 3.578-1.535 3.391-2.668-.188-1.133-2.009-1.776-4.069-1.436-2.059.34-3.577 1.535-3.39 2.668.187 1.133 2.009 1.776 4.068 1.436Z" fill="#F2786B"/><path opacity=".21" d="m127.39 88.37-.26 3.35-.43 3.44v.02c-.46 3.22-3.99 6.7-4.58 7.32-2.12 2.2-11.3 9.57-16.11 9.3-4.81-.27-15.58-6.69-17.65-9.05-.66-.76-3.41-4.47-4.11-7.77-.77-3.38-1.35-7.25-1.35-7.25s2.05 7.79 6.04 13.88c1.54 2.36 12.9 8.15 17.62 8.32 4.72.17 12.46-5.91 15.41-9.03 3.57-3.8 5.37-12.29 5.42-12.53Z" fill="#DA8966"/><path opacity=".21" d="M104.761 94.45c-.68.03-1.36.22-1.95.56-.04.03-.09.05-.12.09-.11.16.08.37.25.46 1.1.58 2.42.46 3.61.16.29-.07.59-.17.79-.38.13-.14.21-.38.07-.5-.06-.05-.14-.07-.21-.09a8.29 8.29 0 0 0-3.4.05l.96-.35Z" fill="#DA8966"/><path d="M102.75 95.28c.3-.12.55-.34.87-.45.37-.12.76-.15 1.14-.15.36-.01.73-.01 1.09.05.41.07.67.22.99.49.31.26.81-.08.58-.47-.51-.86-1.75-.85-2.61-.82-.73.02-2.16.13-2.35 1.08-.03.15.12.34.29.27Z" fill="#D88261"/><path opacity=".11" d="M110.48 81.31c.09-3.19-3.63-3.78-5.98-3.45-1.39.2-3.65.15-4.83.91-1.13.73-1.69 2.27-1.24 3.57.21.62.61 1.15.99 1.68 1.1 1.54 2.08 3.18 2.92 4.88.37.76.8 1.61 1.59 1.88.54.18 1.14.04 1.65-.24 1.01-.56 1.69-1.6 2.17-2.67.48-1.07.81-2.22 1.35-3.26.55-1.07 1.34-2.09 1.38-3.3Z" fill="#F8A37A"/><path d="M94.18 92.73c2.458 0 4.45-2.05 4.45-4.58 0-2.53-1.992-4.58-4.45-4.58-2.457 0-4.45 2.05-4.45 4.58 0 2.53 1.993 4.58 4.45 4.58Z" fill="#fff"/><path d="M97.931 88.99c-.53 1.89-2.44 2.98-4.28 2.44-1.84-.54-2.9-2.52-2.37-4.41.53-1.89 2.44-2.98 4.28-2.44 1.84.54 2.9 2.52 2.37 4.41Z" fill="#000"/><path d="M96.43 89.72c-.15.55-.71.87-1.24.71-.53-.16-.84-.73-.69-1.28.15-.55.71-.87 1.24-.71.54.15.84.73.69 1.28Zm15.99-1.39c.32 2.51 2.56 4.27 4.99 3.94 2.43-.33 4.15-2.64 3.82-5.14-.32-2.51-2.56-4.27-4.99-3.94-2.43.33-4.14 2.63-3.82 5.14Z" fill="#fff"/><path d="M113.11 87.99c.25 1.95 1.99 3.32 3.88 3.06 1.89-.26 3.22-2.05 2.97-4-.25-1.95-1.99-3.32-3.88-3.06-1.89.26-3.22 2.05-2.97 4Z" fill="#000"/><path d="M114.12 88.41c.07.57.58.97 1.13.89.55-.08.94-.6.86-1.16-.07-.57-.58-.97-1.13-.89-.55.07-.93.59-.86 1.16Z" fill="#fff"/><path d="M102.781 50.88c-1.71.57-3.14 2.14-4.34 3.45-1.25 1.38-2.39 2.86-3.36 4.46-1.86 3.09-3 6.73-2.46 10.39.26 1.81.87 4 2.51 4.98.12.07.26-.05.23-.19-.35-1.55-1.07-2.97-1.29-4.57-.21-1.58-.14-3.21.22-4.76.78-3.36 2.64-6.29 4.77-8.9.62-.76 1.27-1.48 1.95-2.17.69-.71 1.49-1.31 2.15-2.04.25-.28-.01-.78-.38-.65Z" fill="#6B3D2D"/><path d="M103.381 55.49c.28-.4-.29-.96-.67-.67-2.32 1.76-3.16 5.05-3.13 7.9.02 1.65.33 3.32.86 4.88.49 1.45 1.1 3.27 2.31 4.26.05.04.17.02.16-.07-.16-1.48-.98-2.88-1.4-4.3-.44-1.47-.73-2.99-.73-4.53 0-1.35.22-2.69.67-3.96.45-1.28 1.17-2.41 1.93-3.51ZM99.8 50.63c-1.87.38-3.58 1.52-5.11 2.64a31.721 31.721 0 0 0-4.36 3.83c-2.76 2.92-5.24 6.32-5.61 10.5-.2 2.27.38 4.48 1.48 6.44.17.29.65.09.54-.24-1.18-3.56-.88-7.67.97-10.92 1.83-3.2 4.51-6.01 7.34-8.28 1.59-1.28 3.4-2.3 4.92-3.68.131-.13-.03-.32-.17-.29Z" fill="#6B3D2D"/><path d="M100.12 49.07c-2.4-.25-4.95.82-7.06 1.9a23.37 23.37 0 0 0-5.89 4.34c-3.98 4.01-6.08 9.42-7.35 14.92-.39 1.68-.67 3.41-.69 5.13-.01.88.03 1.77.2 2.63.08.42.19.82.32 1.22.14.43.39.75.58 1.15.18.37.64.08.59-.27-.07-.41-.03-.83-.07-1.25-.04-.32-.06-.65-.08-.97-.05-.72-.1-1.43-.1-2.15.01-1.46.18-2.92.47-4.35.58-2.91 1.48-5.86 2.66-8.57 1.91-4.37 5.21-7.98 9.26-10.31 1.12-.65 2.3-1.2 3.51-1.65 1.24-.45 2.52-.76 3.74-1.28.25-.09.2-.46-.09-.49Z" fill="#6B3D2D"/><path d="M96.59 48.22c-.57-.01-1.14-.04-1.71.03-.58.08-1.15.17-1.72.27-1.17.22-2.32.5-3.46.84-2.22.65-4.33 1.6-6.21 2.99-3.43 2.52-5.72 6.32-7.05 10.39-.67 2.04-1.07 4.15-1.27 6.29-.41 4.31-.58 8.64-.37 12.96.2 4.11.29 8.63 1.29 12.63.12.48.6 1.08.98.76-.9-9.88-2.01-20.91.42-30.62.95-3.92 2.78-7.56 5.63-10.36 1.75-1.72 3.9-2.97 6.15-3.87 1.19-.48 2.41-.83 3.65-1.13.59-.14 1.19-.27 1.78-.39.65-.13 1.27-.33 1.92-.51.16-.05.12-.28-.03-.28Zm16.96 14.47c-.68-1.69-1.79-3.08-2.99-4.4-.63-.69-1.27-1.38-1.91-2.07-.31-.34-.61-.68-.89-1.04-.26-.32-.48-.74-.8-1-.05-.04-.12-.03-.13.04-.21.7.4 1.49.78 2.01.53.71 1.1 1.38 1.67 2.05 1.14 1.32 2.29 2.67 3.01 4.28.71 1.58.9 3.26.36 4.92-.25.78-.61 1.51-1.02 2.21-.36.62-.91 1.34-.99 2.08-.01.09.11.12.17.07.32-.3.54-.73.8-1.08.24-.32.49-.63.73-.95.51-.65 1.08-1.28 1.41-2.06.68-1.61.44-3.49-.2-5.06Z" fill="#6B3D2D"/><path d="M120.021 63.43c-2.18-3.09-5.4-5-8.32-7.22-.83-.63-1.66-1.3-2.42-2.02-.79-.74-1.5-1.55-2.26-2.32-.08-.09-.25 0-.21.13.59 1.62 1.89 2.94 3.14 4.05 1.35 1.19 2.83 2.21 4.26 3.28 2.76 2.07 5.69 4.53 6.54 8.11.5 2.09.19 4.33-.5 6.34-.09.25.26.35.39.16 2.19-3.19 1.52-7.48-.62-10.51Z" fill="#6B3D2D"/><path d="M127.61 70.8c-.25-2.64-.91-5.27-2.1-7.63-1.18-2.35-2.94-4.26-5.03-5.76-1.98-1.43-4.19-2.38-6.41-3.33-1.2-.51-2.42-1-3.56-1.66-1.13-.66-2.09-1.5-3.1-2.33-.11-.09-.35-.01-.28.17.82 2.05 3.01 3.28 4.85 4.2 2.12 1.07 4.35 1.86 6.39 3.1 2.08 1.27 3.96 2.9 5.26 5.02 1.37 2.22 2.13 4.81 2.47 7.4.21 1.64.31 3.29.34 4.94.02.87.03 1.73.08 2.6.05.81.07 1.63.29 2.41.04.13.19.1.23 0 .52-1.37.63-3.03.68-4.49.05-1.55.03-3.1-.11-4.64Z" fill="#6B3D2D"/><path d="M131.81 69.45c-.17-3.22-1.02-6.32-2.56-9.13-2.96-5.4-8.11-9.18-13.87-10.82a25.01 25.01 0 0 0-5.16-.9c-1.77-.12-3.59.12-5.33-.37-.12-.03-.23.14-.12.23 1.1.92 2.56.93 3.91.99 1.53.08 3.06.29 4.57.62 2.98.66 5.84 1.86 8.38 3.61 4.73 3.27 8.14 8.57 8.83 14.43.23 1.94.21 3.9.05 5.84-.17 1.92-.58 3.87-.53 5.81 0 .16.24.24.31.08.75-1.57 1.07-3.4 1.28-5.12.22-1.74.33-3.5.24-5.27Z" fill="#6B3D2D"/><path d="M133.03 63.79c.01.07.03.14.04.21 1.23 5.8 1.97 11.86.7 17.72-.06.29-.26.66-.54.57-.17-.05-.25-.25-.29-.42-.61-2.34-.18-4.8.02-7.21.7-8.8-2.08-19.02-9.17-24.82-4.91-4.01-11.47-3.67-17.29-2.61-.34.06-.48-.42-.15-.54.73-.26 1.46-.51 2.22-.68 6.14-1.36 12.82-.52 17.5 4.11 1.8 1.78 3.5 3.75 4.71 5.99 1.27 2.33 1.71 5.08 2.25 7.68Z" fill="#6B3D2D"/></g><path d="M67.49 131.18c-13.3-10.29-21.86-26.4-21.86-44.51 0-31.06 25.18-56.24 56.24-56.24 7.08 0 13.84 1.31 20.08 3.69" stroke="#FF6551" stroke-width="1.976" stroke-miterlimit="10" stroke-linecap="round" stroke-linejoin="round" stroke-dasharray="9.88 9.88"/><path d="m27.45 104.389 5.17-.19c.4-.02.55-.53.21-.75l-4.04-2.63c-.16-.1-.23-.3-.16-.48l1.3-3.62c.14-.39-.33-.72-.65-.45l-3.05 2.53c-.14.12-.34.13-.49.03l-2.9-1.89c-.31-.2-.71.07-.63.43l.85 3.79c.03.15-.02.3-.14.4l-2.85 2.37c-.3.25-.11.74.28.72l3.12-.12c.2-.01.37.13.42.32l.89 3.97c.09.4.65.43.79.05l1.52-4.21c.04-.15.19-.26.36-.27Z" fill="#FF6551"/><path d="m13.17 145.46 6.89-.26c.54-.02.73-.71.28-1l-5.38-3.5c-.21-.14-.3-.4-.22-.64l1.74-4.82c.19-.52-.44-.96-.87-.6l-4.06 3.38c-.19.15-.45.17-.66.04l-3.87-2.52c-.41-.27-.95.1-.84.57l1.13 5.05c.04.2-.03.4-.18.54l-3.8 3.16c-.4.33-.15.98.37.96l4.16-.16c.27-.01.5.17.56.43l1.18 5.29c.12.53.87.58 1.06.06l2.03-5.62c.06-.21.26-.35.48-.36Z" fill="#FFC652"/><path d="m176.1 176.36 6.55 2.16c.51.17.93-.41.61-.84l-3.83-5.16c-.15-.2-.14-.48.02-.67l3.31-3.91c.36-.42-.08-1.05-.61-.86l-4.99 1.75c-.23.08-.48 0-.63-.19l-2.75-3.71c-.29-.4-.92-.24-.99.25l-.7 5.12c-.03.2-.17.37-.36.44l-4.67 1.64c-.49.17-.48.87.01 1.03l3.95 1.3c.25.08.41.33.37.59l-.74 5.37c-.07.54.61.85.97.43l3.86-4.56c.17-.19.4-.26.62-.18Z" fill="#FF6551"/><path d="m48.36 140.18 2.74 5.25c.21.41.83.3.9-.15l.79-5.48c.03-.22.21-.38.43-.4l4.46-.45c.48-.05.59-.7.15-.9l-4.17-1.9a.47.47 0 0 1-.27-.49l.57-3.94c.06-.42-.43-.7-.76-.44l-3.58 2.76c-.14.11-.33.13-.49.06l-3.91-1.77a.475.475 0 0 0-.62.65l1.66 3.17c.11.2.05.45-.13.59l-3.76 2.89c-.38.29-.14.89.34.84l5.2-.52c.18-.04.37.06.45.23Z" fill="#864FF1"/><path d="m320.92 96.5 5.41-2.43c.42-.19.35-.81-.1-.9l-5.43-1.12a.48.48 0 0 1-.38-.45l-.18-4.48c-.02-.49-.66-.64-.89-.21l-2.14 4.05a.47.47 0 0 1-.51.24l-3.9-.8c-.42-.09-.72.38-.48.74l2.54 3.74c.1.15.11.34.03.49l-2 3.79c-.21.4.2.85.61.66l3.26-1.46c.21-.09.45-.02.58.17l2.66 3.92c.27.4.88.19.86-.29l-.21-5.22a.44.44 0 0 1 .27-.44Z" fill="#67D449"/><path d="m290.799 71.25-.36 5.47c-.03.43-.59.56-.81.2l-2.69-4.37a.451.451 0 0 0-.51-.19l-3.91 1.26c-.42.14-.76-.37-.46-.71l2.8-3.15c.13-.14.15-.36.05-.52l-1.94-3.14c-.21-.33.1-.75.48-.65l4.03 1.02c.16.04.33-.01.43-.13l2.62-2.95c.28-.31.79-.1.76.32l-.22 3.3c-.01.21.12.4.33.45l4.22 1.07c.43.11.45.71.03.84l-4.56 1.47a.5.5 0 0 0-.29.41Z" fill="#FF6551"/><path d="M143.55 24.61c3.9-.06 7.81-.12 11.71-.17.8-.01.74 1.23-.06 1.25-3.9.06-7.81.12-11.71.17-.81.01-.74-1.23.06-1.25Zm-1.39 2.88c5.13.03 10.25.07 15.38.1.8.01.74 1.25-.06 1.25-5.13-.03-10.25-.07-15.38-.1-.81 0-.74-1.25.06-1.25Zm.29 3.72c4.54-.61 9.13-.75 13.7-.41.8.06.74 1.31-.06 1.25-4.46-.33-8.94-.21-13.37.38-.79.11-1.06-1.11-.27-1.22Z" fill="#49B3F7"/><path d="M145.1 44.23a.577.577 0 0 1-.32-.14.59.59 0 0 1-.18-.67c.65-1.79 1.11-3.65 1.38-5.53-2.1-.33-4.44-.84-6.5-1.97-2.49-1.35-4.22-3.46-4.77-5.78-.5-2.15-.14-4.14 1.09-5.9 2.39-3.46 7.52-5.25 11.18-5.73 4.89-.64 9.71-.24 12.3.45l.18.05c2.31.61 4.71 1.24 6.44 3.24 1.91 2.21 2.17 5.75.63 8.62-1.27 2.38-3.67 4.32-6.77 5.48-2.6.97-5.35 1.32-8.03 1.64-.93 2.81-3.59 4.59-6.25 6.17-.12.06-.25.08-.38.07Zm2.03-24.52c-3.68.48-8.31 2.28-10.34 5.22-1.02 1.48-1.32 3.14-.9 4.94.47 1.98 1.98 3.8 4.17 4.99 2.08 1.13 4.45 1.59 6.69 1.92.32.05.55.34.51.67-.19 1.62-.52 3.23-.99 4.8 2.05-1.32 3.86-2.85 4.42-4.97a.61.61 0 0 1 .52-.45c2.73-.32 5.55-.65 8.14-1.61 2.82-1.05 5-2.8 6.13-4.91 1.3-2.44 1.11-5.43-.48-7.26-1.49-1.72-3.6-2.27-5.83-2.86l-.18-.05c-2.43-.64-7.16-1.04-11.86-.43Z" fill="#49B3F7"/></svg>